<svg version="1.1" id="Слой_1" xmlns="http://www.w3.org/2000/svg" x="0" y="0" viewBox="0 0 412.6 163.4" xml:space="preserve"><style>.st1{fill:#4d4d4d}</style><path d="M220.8 109.8c-12.6 24.8-45.8 46.1-85.8 42.6-35.5-3.1-62.1-26.8-69.3-50 2.7 3.2 4.7 5.6 6.8 7.9 17.5 18.8 39.4 29.4 66.6 29.2 25.8-.2 47-9.8 63.2-28.4 1.6-1.9 2.9-2.6 5.7-2.1 4.2.8 8.4.6 12.8.8zM93.2 65.9c12.8-25.1 46.4-46.7 86.9-43.2 36 3.1 63 27.1 70.2 50.6-2.8-3.2-4.8-5.7-6.9-8-17.7-19.1-40-29.8-67.5-29.6-26.1.2-47.7 9.9-64 28.8-1.6 1.9-3 2.6-5.8 2.1-4.2-.7-8.5-.5-12.9-.7z" fill="#00669a"/><path class="st1" d="M207.2 51h8c1.6-14.2 6-27.9 13-40.4-8.6 5.5-21.3 30.6-21 40.4zM29.9 55.2c-.9-2.5-2.3-4.7-4-6.7-1.2-1.2-2.8-2-4.5-2.3v-1.7c.2 0 .8 0 1.7-.1s1.5-.1 1.9-.1c1.5 0 3 .1 4.6.3 3.4.5 6.5 2.1 8.8 4.7 1.5 1.7 2.7 3.7 3.5 5.8L55.4 87s4.2-20.3 6.1-26.9c1.7-6.1 8.2-23.9 8.2-23.9l23.5 10.1s-15.6 5.1-19.9 8.4c-11.1 8.3-15 34.4-16.5 44.7-1 6.3.5 12.7 4.2 17.8 0 0-4-4.2-5.7-6.2-1-1.2-5.1-6.8-5.1-6.8l-20.3-49z"/><path class="st1" d="M74.5 83.2c.1-1.5-.2-3-.8-4.4-.5-1.1-1.7-1.7-3.5-1.7h-.6v-1.8H77c.9 0 1.8.1 2.7.4.7.3 1.3.7 1.7 1.3.5.7.8 1.6.9 2.4.2 1.3.3 2.5.2 3.8V104h-8V83.2zm7.4-14.7c0 .9-.3 1.9-1 2.5-.6.6-1.5.9-2.4.9-1.3.1-2.6-.4-3.4-1.4-.8-.9-1.2-2.1-1.1-3.2 0-.9.3-1.9 1-2.5.6-.6 1.5-.9 2.4-.9 1.3-.1 2.6.4 3.5 1.4.6.8 1 2 1 3.2zm20.2 8.8c-2.2 0-4.2 1.1-5.3 3-1.4 2-2.1 5.1-2.1 9.2 0 8.2 2.6 12.2 7.7 12.2 1.8.1 3.7-.4 5.2-1.5 1.4-1 2.6-2.2 3.6-3.6l1.9 1.4c-.5.8-1 1.5-1.6 2.2-.7.8-1.5 1.5-2.4 2.1-1 .7-2.2 1.2-3.3 1.6-1.5.4-3 .6-4.6.6-2.2 0-4.4-.4-6.4-1.2-1.7-.7-3.3-1.8-4.6-3.2-1.2-1.4-2.2-3-2.8-4.8-1.2-3.8-1.2-7.8 0-11.6.6-1.8 1.5-3.4 2.8-4.8 1.3-1.4 2.8-2.5 4.6-3.2 2-.8 4.2-1.2 6.4-1.2 2 0 4 .1 5.9.5 1.3.2 2.6.8 3.6 1.7.8.9 1.3 2 1.3 3.1.1 1.3.2 3.1.2 5.4h-1.8c0-2.2-.9-4.4-2.4-5.9-1.7-1.3-3.8-2.1-5.9-2zm23.7-2.1h6.7V78h-6.7v18c0 2.3.3 3.8.8 4.6.5.8 1.4 1.2 2.4 1.2.6 0 1.3-.1 1.9-.2.5-.1 1.1-.3 1.6-.6s1-.5 1.4-.9l.9 1.7c-.6.5-1.2 1-1.9 1.3-.8.4-1.6.7-2.5.9-1.2.3-2.4.5-3.6.4-2.4.1-4.7-.7-6.5-2.3-1.6-1.5-2.4-3.7-2.4-6.7V78h-3.7v-2.8h3.7v-5.5L121 66h4.9v9.2zm9.2 14.4c0-2 .3-4 1-5.9.6-1.8 1.6-3.4 2.9-4.8 1.3-1.4 2.9-2.5 4.6-3.2 4-1.6 8.4-1.6 12.3 0 1.7.7 3.3 1.8 4.6 3.2 1.3 1.4 2.3 3 2.9 4.8 1.3 3.8 1.3 8 0 11.8-.6 1.8-1.6 3.4-2.9 4.8-1.3 1.4-2.9 2.5-4.6 3.2-4 1.5-8.4 1.5-12.3 0-1.7-.7-3.3-1.8-4.6-3.2-1.3-1.4-2.3-3-2.9-4.8-.7-1.9-1-3.9-1-5.9zm21.1 0c0-1.6-.1-3.3-.4-4.9-.2-1.3-.6-2.7-1.2-3.9-.4-1-1.1-1.9-2-2.6-1.7-1.2-4-1.2-5.6 0-.9.7-1.6 1.6-2 2.6-.6 1.2-1 2.5-1.2 3.9-.5 3.2-.5 6.5 0 9.7.2 1.3.6 2.6 1.2 3.9.4 1 1.1 1.9 2 2.6 1.7 1.2 3.9 1.2 5.6 0 .9-.7 1.6-1.6 2-2.6.6-1.2 1-2.5 1.2-3.9.3-1.5.4-3.2.4-4.8zm27.7-15c1.5-.1 3.1.4 4.3 1.2.4.2.7.5.9.9.2.3.5.6.6.9.2.3.4.7.5 1L187 81c-.3-.4-.7-.8-1.1-1.2-.4-.3-.8-.6-1.3-.9-.6-.3-1.2-.4-1.8-.4-1.1 0-2.3.2-3.3.6-.8.3-1.5.8-2.1 1.3 0 .3.1.6.1.9s.1.6.1 1V104h-8V83.2c0-.8 0-1.7-.1-2.5-.1-.7-.3-1.4-.6-2-.3-.5-.7-1-1.3-1.3-.7-.3-1.5-.5-2.2-.4h-.6v-1.8h6.1c1.1 0 2.2.1 3.3.5.8.3 1.5 1 1.9 1.7.9-.8 1.9-1.4 3-1.9 1.4-.7 3-1 4.7-.9zm22.5-18.1h8.9v36.3c-.1 1.7.2 3.4.9 5 .6 1.3 1.9 1.9 3.9 1.9h.7v2.1h-8.2c-1 0-2-.1-3-.4-.8-.3-1.5-.8-1.9-1.4-.5-.8-.9-1.8-1-2.7-.2-1.4-.3-2.9-.3-4.3V56.5zm17.3 22.8c-.8-1.7-1.7-3.4-2.9-4.9-.7-.9-1.7-1.5-2.8-1.6v-1.3l1.1-.1c.6 0 1-.1 1.3-.1 1.2 0 2.4.1 3.6.3 1.1.2 2.2.6 3.2 1.2 1.1.6 2.1 1.4 2.9 2.4 1 1.2 1.8 2.6 2.5 4l5.5 12.2 8.6-19.4h3.4l-13.5 30.4h-2.3l-10.6-23.1zm40.1-8c4.1 0 7.3 1.1 9.6 3.3s3.4 5.5 3.4 10v17.1h-5.4l-2.3-2.8h-.3c-.5.7-1.1 1.3-1.8 1.8s-1.5.9-2.3 1.2c-1.1.4-2.3.5-3.5.5-3.5 0-6.2-.8-8-2.4-1.8-1.5-2.8-3.8-2.8-6.2 0-1.4.2-2.7.8-4 .6-1.2 1.5-2.3 2.7-3 1.6-.9 3.4-1.5 5.2-1.8 2.8-.5 5.6-.7 8.4-.6h1c0-3.8-.5-6.4-1.6-7.9-1-1.4-2.7-2.3-4.4-2.2-.7 0-1.4.1-2.1.2-.7.2-1.3.4-1.8.8-.6.5-1.1 1-1.5 1.7-.5.9-.8 1.9-1 2.9h-3.5c0-1.1.1-2.2.2-3.4.1-1.1.6-2.2 1.4-3 1-1 2.4-1.6 3.8-1.7 1.9-.3 3.8-.5 5.8-.5zm4.7 15.9h-1c-3 0-5.2.6-6.6 1.7-1.4 1.3-2.1 3.2-2 5.1-.1 1.5.3 2.9 1.1 4.1.7.9 1.8 1.4 3 1.4.9 0 1.7-.2 2.4-.6.6-.4 1.2-.9 1.7-1.4.5-.6 1-1.3 1.3-2.1l.1-8.2zm28.4-12.8c-1.2 0-2.4.2-3.5.6-.9.3-1.7.8-2.3 1.4 0 .2.1.6.2.9.1.4.2.7.2 1.1.1.5.1.9.1 1.4v22h-8.2V80.2c0-.9 0-1.7-.1-2.6-.1-.7-.3-1.4-.6-2-.3-.6-.8-1-1.3-1.3-.7-.3-1.5-.5-2.3-.4h-.6V72h6.3c1.2 0 2.3.1 3.4.5.8.4 1.5 1 1.9 1.8.4-.4.9-.7 1.4-1 .6-.4 1.2-.7 1.9-1 .8-.3 1.7-.5 2.6-.7 1.1-.2 2.3-.3 3.4-.3 4 0 7 .9 9 2.8s3 4.8 3 8.9v18.8h-8.2v-19c0-3.1-.6-5.3-1.7-6.6-1.4-1.2-3-1.8-4.6-1.8zm33.7 25.1c1.9.1 3.8-.5 5.4-1.5 1.4-1.1 2.7-2.3 3.7-3.7l2 1.5c-.5.8-1.1 1.6-1.7 2.3-.7.8-1.5 1.5-2.4 2.2-1 .7-2.2 1.2-3.4 1.6-1.5.4-3 .7-4.5.6-2.1 0-4.1-.4-6-1.2-1.7-.7-3.3-1.8-4.6-3.2-1.3-1.4-2.3-3.1-3-5-.7-2-1-4.1-1-6.2 0-2.3.3-4.6 1.1-6.7.6-1.8 1.6-3.4 2.9-4.8 1.2-1.3 2.7-2.3 4.4-2.9 1.8-.7 3.6-1 5.5-1s3.7.3 5.5.9c1.6.6 3.1 1.4 4.4 2.6 1.3 1.1 2.3 2.5 3 4 .7 1.6 1.1 3.4 1.1 5.2v1.4c0 .5 0 .9-.1 1.3s-.1.9-.1 1.3h-19.1c0 4.2.6 7.1 1.9 8.9 1.1 1.5 3 2.5 5 2.4zm3.8-14.3c0-1.8-.1-3.5-.4-5.2-.2-1.2-.6-2.3-1.1-3.4-.4-.8-1-1.4-1.7-1.8-.7-.3-1.4-.5-2.1-.5-.7 0-1.4.2-2.1.5-.7.4-1.3 1.1-1.7 1.8-.6 1-1 2.2-1.2 3.4-.3 1.7-.5 3.5-.4 5.2h10.7zM356.4 72h7v2.8h-7v18.7c0 2.4.3 4 .9 4.8.5.8 1.5 1.3 2.4 1.2.7 0 1.3-.1 1.9-.2.6-.1 1.1-.3 1.6-.6l1.5-.9.9 1.8c-.6.5-1.3 1-2 1.4-.8.4-1.7.7-2.6 1-1.2.3-2.5.5-3.7.4-2.5.1-4.9-.7-6.8-2.3-1.6-1.6-2.4-3.9-2.4-6.9V74.8h-3.8V72h3.8v-5.7l3.2-3.8h5.1V72zm20.5 27.5c2.4 0 4-.4 4.9-1.2.9-.8 1.4-1.9 1.4-3.1 0-1.2-.6-2.3-1.6-2.9-1.3-.8-2.6-1.6-4-2.2l-3.3-1.4c-2.2-.9-4.2-2.1-6-3.7-1.4-1.4-2.2-3.2-2.1-5.2 0-1.3.3-2.5.9-3.6.6-1.1 1.5-2 2.5-2.6 1.2-.8 2.5-1.3 3.8-1.6 1.6-.4 3.2-.5 4.8-.5 2.2-.1 4.3.2 6.4.7 1.4.3 2.7 1 3.8 1.9.8.8 1.3 1.9 1.3 3.1.1 1.3.2 2.8.2 4.4h-2.2c-.3-1.9-1.1-3.7-2.5-5.2a7.25 7.25 0 0 0-5.8-2.1c-1.5-.1-3 .3-4.1 1.2-.8.8-1.3 1.9-1.3 3.1 0 1.1.4 2.1 1.2 2.8 1 .8 2.1 1.5 3.3 1.9l3.8 1.6c2.4.9 4.6 2.2 6.6 3.8 1.5 1.4 2.4 3.4 2.3 5.4 0 1.3-.3 2.5-1 3.6s-1.6 2-2.7 2.6c-1.3.8-2.6 1.3-4.1 1.6-1.7.4-3.5.6-5.2.5-2.2.1-4.3-.2-6.4-.7-1.4-.3-2.7-1-3.8-1.9-.8-.8-1.3-1.9-1.3-3.1-.1-1.3-.2-2.8-.2-4.4h2.2c.3 1.9 1.2 3.7 2.5 5.2 1.5 1.4 3.6 2.2 5.7 2z"/><path d="M338.2 125c0 .6-.2 1-.5 1.4-.3.4-.8.5-1.4.5-.6 0-1.1-.2-1.4-.5-.3-.4-.5-.8-.5-1.4s.2-1 .5-1.4c.3-.4.8-.5 1.4-.5.6 0 1.1.2 1.4.5.3.3.5.8.5 1.4zm8.2.4c1.2 0 2-.2 2.5-.6.5-.4.7-.9.7-1.5s-.3-1.1-.8-1.5c-.5-.4-1.2-.7-2-1.1l-1.6-.7c-1.3-.5-2.3-1.2-3-1.9-.7-.7-1.1-1.6-1.1-2.6 0-.7.1-1.3.4-1.8.3-.5.7-1 1.2-1.3.5-.4 1.2-.6 1.9-.8.7-.2 1.5-.3 2.4-.3 1.3 0 2.4.1 3.2.3.8.2 1.5.5 1.9.9.4.4.6.9.7 1.5.1.7.1 1.4.1 2.2h-1.1c-.2-1-.6-1.9-1.2-2.6-.7-.7-1.6-1.1-2.9-1.1-.9 0-1.6.2-2.1.6-.4.4-.6.9-.6 1.5s.2 1 .6 1.4c.4.3.9.7 1.6 1l1.9.8c1.5.6 2.5 1.2 3.3 1.9.7.7 1.1 1.6 1.1 2.7 0 .7-.2 1.3-.5 1.8s-.8 1-1.3 1.3c-.6.4-1.2.6-2 .8-.8.2-1.7.3-2.6.3-1.3 0-2.4-.1-3.2-.3-.8-.2-1.5-.5-1.9-.9-.4-.4-.6-.9-.7-1.5-.1-.7-.1-1.4-.1-2.2h1.1c.2 1 .6 1.9 1.2 2.6s1.6 1.1 2.9 1.1zm10.7-9.7c0-.9-.1-1.7-.4-2.3-.3-.6-.9-.9-1.8-.9h-.3v-.9h3.8c.5 0 1 .1 1.4.2.4.1.7.4.9.7.2.3.4.7.5 1.3.1.5.1 1.2.1 2v10.7h-4.1v-10.8zm3.8-7.5c0 .5-.2 1-.5 1.3-.3.3-.7.5-1.2.5-.8 0-1.4-.2-1.8-.7-.4-.5-.6-1-.6-1.7 0-.5.2-1 .5-1.3.3-.3.7-.5 1.2-.5.8 0 1.4.2 1.8.7.4.5.6 1 .6 1.7zm8.8 3.4h3.5v1.4h-3.5v9.3c0 1.2.1 2 .4 2.4.3.4.7.6 1.2.6.3 0 .7 0 1-.1.3-.1.6-.2.8-.3.3-.1.5-.3.7-.4l.4.9c-.3.3-.6.5-1 .7-.3.2-.8.3-1.3.5-.5.1-1.1.2-1.8.2-1.4 0-2.6-.4-3.4-1.2-.8-.8-1.2-1.9-1.2-3.4V113h-1.9v-1.4h1.9v-2.8l1.6-1.9h2.5v4.7zm13.4 13.8c1.1 0 2-.3 2.7-.8.7-.5 1.3-1.1 1.8-1.9l1 .7c-.2.4-.5.7-.8 1.1-.3.4-.7.7-1.2 1.1-.5.3-1 .6-1.7.8-.6.2-1.4.3-2.3.3-1.1 0-2.1-.2-3-.6-.9-.4-1.7-.9-2.3-1.6-.6-.7-1.1-1.5-1.5-2.4-.3-.9-.5-2-.5-3.1 0-1.3.2-2.4.5-3.3s.8-1.8 1.5-2.4c.6-.6 1.4-1.1 2.2-1.5.8-.3 1.8-.5 2.7-.5 1 0 1.9.2 2.7.5.8.3 1.6.7 2.2 1.3.6.5 1.1 1.2 1.5 2 .4.8.5 1.6.5 2.6v1.3c0 .2 0 .4-.1.6h-9.5c0 2.1.3 3.6 1 4.4.7.9 1.6 1.4 2.6 1.4zm1.9-7.2c0-1.1-.1-1.9-.2-2.6-.1-.7-.3-1.3-.6-1.7-.2-.4-.5-.7-.8-.9-.3-.2-.7-.3-1.1-.3-.4 0-.7.1-1 .3-.3.2-.6.5-.9.9-.2.4-.4 1-.6 1.7-.1.7-.2 1.6-.2 2.6h5.4z"/></svg>