<?xml version="1.0" encoding="utf-8"?>
<!-- Generator: Adobe Illustrator 25.2.1, SVG Export Plug-In . SVG Version: 6.00 Build 0)  -->
<svg version="1.1" id="Слой_1" xmlns="http://www.w3.org/2000/svg" xmlns:xlink="http://www.w3.org/1999/xlink" x="0px" y="0px"
	 viewBox="0 0 203.7 109.3" style="enable-background:new 0 0 203.7 109.3;" xml:space="preserve">
<style type="text/css">
	.st0{fill:#FFFFFF;}
</style>
<path class="st0" d="M11.8,49.8h8c1.6-14.2,6-27.9,13-40.4C24.2,14.9,11.5,40,11.8,49.8z"/>
<path class="st0" d="M10.9,55.3h8.9v36.3c-0.1,1.7,0.2,3.4,0.9,5c0.6,1.3,1.9,1.9,3.9,1.9h0.7v2.1h-8.2c-1,0-2-0.1-3-0.4
	c-0.8-0.3-1.4-0.8-1.9-1.4c-0.5-0.8-0.9-1.7-1-2.7c-0.2-1.4-0.3-2.9-0.3-4.3L10.9,55.3z"/>
<path class="st0" d="M28.2,78.1c-0.8-1.7-1.7-3.4-2.9-4.9c-0.7-0.9-1.7-1.5-2.8-1.6v-1.3l1.1-0.1c0.6,0,1-0.1,1.3-0.1
	c1.2,0,2.4,0.1,3.6,0.3c1.1,0.2,2.2,0.6,3.2,1.2c1.1,0.6,2.1,1.4,2.9,2.4c1,1.2,1.8,2.6,2.5,4l5.5,12.2l8.6-19.4h3.4l-13.5,30.4
	h-2.3L28.2,78.1z"/>
<path class="st0" d="M68.3,70.1c4.1,0,7.3,1.1,9.6,3.3c2.3,2.2,3.4,5.5,3.4,10v17.1h-5.4l-2.3-2.8h-0.3c-0.5,0.7-1.1,1.3-1.8,1.8
	c-0.7,0.5-1.5,0.9-2.3,1.2c-1.1,0.4-2.3,0.5-3.5,0.5c-3.5,0-6.2-0.8-8-2.4c-1.8-1.5-2.8-3.8-2.8-6.2c0-1.4,0.2-2.7,0.8-4
	c0.6-1.2,1.5-2.3,2.7-3c1.6-0.9,3.4-1.5,5.2-1.8c2.8-0.5,5.6-0.7,8.4-0.6h1c0-3.8-0.5-6.4-1.6-7.9c-1-1.4-2.7-2.3-4.4-2.2
	c-0.7,0-1.4,0.1-2.1,0.2c-0.6,0.1-1.3,0.4-1.8,0.8c-0.6,0.5-1.1,1-1.5,1.7c-0.5,0.9-0.8,1.9-1,2.9h-3.5c0-1.1,0.1-2.2,0.2-3.4
	c0.1-1.1,0.6-2.2,1.4-3c1-1,2.4-1.6,3.8-1.7C64.4,70.2,66.4,70.1,68.3,70.1z M73,86h-1c-3,0-5.2,0.6-6.6,1.7
	c-2.3,2.5-2.7,6.3-0.9,9.2c0.7,0.9,1.8,1.4,3,1.4c0.8,0,1.7-0.2,2.4-0.6c0.6-0.4,1.2-0.9,1.7-1.4c0.5-0.6,1-1.3,1.3-2.1L73,86z"/>
<path class="st0" d="M101.4,73.2c-1.2,0-2.4,0.2-3.5,0.6c-0.9,0.3-1.7,0.8-2.3,1.4c0,0.3,0.1,0.6,0.2,0.9c0.1,0.4,0.2,0.7,0.2,1.1
	c0.1,0.5,0.1,0.9,0.1,1.4v22h-8.2V79c0-0.9,0-1.7-0.1-2.6c-0.1-0.7-0.3-1.4-0.6-2c-0.3-0.5-0.8-1-1.3-1.3c-0.7-0.3-1.5-0.5-2.3-0.4
	H83v-1.9h6.3c1.2,0,2.3,0.1,3.4,0.5c0.8,0.4,1.5,1,1.9,1.8c0.4-0.4,0.9-0.7,1.4-1c0.6-0.4,1.2-0.7,1.9-1c0.8-0.3,1.7-0.5,2.6-0.7
	c1.1-0.2,2.3-0.3,3.4-0.3c4,0,7,0.9,9,2.8s3,4.8,3,8.9v18.8h-8.2v-19c0-3.1-0.6-5.3-1.7-6.6C104.7,73.8,103.1,73.2,101.4,73.2z"/>
<path class="st0" d="M135.1,98.3c1.9,0.1,3.8-0.5,5.4-1.5c1.4-1.1,2.6-2.3,3.7-3.7l2,1.5c-0.5,0.8-1.1,1.6-1.7,2.3
	c-0.7,0.8-1.5,1.5-2.4,2.2c-1.1,0.7-2.2,1.2-3.4,1.6c-1.5,0.4-3,0.6-4.5,0.6c-2.1,0-4.1-0.4-6-1.2c-1.7-0.7-3.3-1.8-4.6-3.2
	c-1.3-1.5-2.3-3.2-3-5c-1.4-4.2-1.3-8.7,0.1-12.9c0.6-1.8,1.6-3.4,2.9-4.8c1.2-1.3,2.7-2.3,4.4-2.9c1.8-0.7,3.6-1,5.5-1
	c1.9,0,3.7,0.3,5.5,0.9c1.6,0.6,3.1,1.5,4.4,2.6c1.3,1.1,2.3,2.5,3,4c0.7,1.6,1.1,3.4,1.1,5.2v1.4c0,0.4,0,0.9-0.1,1.3
	c-0.1,0.4-0.1,0.9-0.1,1.3h-19.1c0,4.2,0.6,7.1,1.9,8.9C131.3,97.4,133.1,98.3,135.1,98.3z M138.9,84c0-1.7-0.1-3.5-0.4-5.2
	c-0.2-1.2-0.6-2.3-1.1-3.4c-0.4-0.8-1-1.4-1.7-1.8c-1.3-0.7-2.9-0.7-4.2,0c-0.7,0.4-1.3,1.1-1.7,1.8c-0.6,1-1,2.2-1.2,3.4
	c-0.3,1.7-0.5,3.5-0.4,5.2H138.9z"/>
<path class="st0" d="M161,70.8h7v2.8h-7v18.7c0,2.4,0.3,4,0.9,4.8c0.5,0.8,1.4,1.3,2.4,1.2c0.6,0,1.3-0.1,1.9-0.2
	c0.6-0.1,1.1-0.3,1.6-0.6l1.5-0.9l0.9,1.8c-0.6,0.5-1.3,1-2,1.4c-0.8,0.4-1.7,0.7-2.6,1c-1.2,0.3-2.5,0.5-3.7,0.4
	c-2.5,0.1-4.9-0.7-6.8-2.3c-1.6-1.6-2.4-3.9-2.4-6.9V73.6h-3.8v-2.8h3.8v-5.7l3.2-3.8h5.1V70.8z"/>
<path class="st0" d="M181.5,98.3c2.4,0,4-0.4,4.9-1.2c0.9-0.8,1.4-1.9,1.4-3.1c0-1.2-0.6-2.3-1.6-2.9c-1.3-0.8-2.6-1.6-4-2.2
	l-3.3-1.4c-2.2-0.9-4.2-2.1-6-3.7c-1.4-1.3-2.2-3.2-2.1-5.2c0-1.3,0.3-2.5,0.9-3.6c0.6-1.1,1.5-2,2.5-2.6c1.2-0.8,2.4-1.3,3.8-1.6
	c1.6-0.4,3.2-0.5,4.8-0.5c2.2-0.1,4.3,0.2,6.4,0.7c1.4,0.3,2.7,1,3.8,1.9c0.8,0.8,1.3,1.9,1.3,3.1c0.1,1.3,0.2,2.8,0.2,4.4h-2.2
	c-0.3-1.9-1.2-3.8-2.5-5.2c-1.5-1.5-3.7-2.3-5.8-2.1c-1.5-0.1-2.9,0.3-4.1,1.2c-0.8,0.8-1.3,1.9-1.3,3.1c0,1.1,0.4,2.1,1.2,2.8
	c1,0.8,2.1,1.5,3.3,1.9l3.8,1.6c2.4,0.9,4.6,2.2,6.6,3.8c1.5,1.4,2.4,3.3,2.3,5.4c0,1.3-0.3,2.5-1,3.6c-0.7,1.1-1.6,2-2.7,2.6
	c-1.3,0.8-2.6,1.3-4.1,1.6c-1.7,0.4-3.5,0.6-5.2,0.5c-2.2,0.1-4.3-0.2-6.4-0.7c-1.4-0.3-2.7-1-3.8-1.9c-0.8-0.8-1.3-1.9-1.3-3.1
	c-0.1-1.3-0.2-2.8-0.2-4.4h2.2c0.3,1.9,1.2,3.7,2.5,5.2C177.3,97.7,179.4,98.4,181.5,98.3z"/>
</svg>
