<svg id="Слой_1" data-name="Слой 1" xmlns="http://www.w3.org/2000/svg" xmlns:xlink="http://www.w3.org/1999/xlink" viewBox="0 0 40 40"><defs><style>.cls-1{fill:url(#Безымянный_градиент_46);}.cls-2{fill:#fff;stroke:#fff;stroke-miterlimit:10;stroke-width:0.25px;}</style><linearGradient id="Безымянный_градиент_46" x1="3.21" y1="20" x2="36.79" y2="20" gradientUnits="userSpaceOnUse"><stop offset="0" stop-color="#bd1622"/><stop offset="1" stop-color="#130000"/></linearGradient></defs><circle class="cls-1" cx="20" cy="20" r="16.79"/><path class="cls-2" d="M5.09,30.44a.8.8,0,0,1-.36-.55Q3,22.54,1.2,15.2l-.07-.31L1,14.52c0-.12-.05-.24-.07-.37s0-.26,0-.38a2.55,2.55,0,0,1,.15-1.08,2,2,0,0,1,.94-1,5.35,5.35,0,0,1,.59-.29,3.18,3.18,0,0,1,.57-.19,3.11,3.11,0,0,1,1.87.16,3.59,3.59,0,0,1,1.46,1.21c1.74,2.35,3.38,4.75,4.93,7.23a1.57,1.57,0,0,0,.46.55.8.8,0,0,0,.51.11.57.57,0,0,0,.25-.07.4.4,0,0,0,.17-.19,1.67,1.67,0,0,0,.11-.23,3.19,3.19,0,0,1,.13-.34c1-2.74,2.1-5.42,3.28-8.08a5.29,5.29,0,0,1,1-1.5,2.76,2.76,0,0,1,2-.66,3.62,3.62,0,0,1,2.21.59,1.72,1.72,0,0,1,.78,1.49q-.25,7.79-.52,15.58a2,2,0,0,1-.69,1.45,2.41,2.41,0,0,1-1.7.59,2.54,2.54,0,0,1-1.74-.61A2.11,2.11,0,0,1,17,27.08l-.26-6.22a10.54,10.54,0,0,0-.11-1.21c-.06-.32-.22-.47-.47-.46a.9.9,0,0,0-.7.52,9,9,0,0,0-.58,1.12.23.23,0,0,1,0,.07.25.25,0,0,1,0,.07c-.88,2.56-1.68,5.13-2.4,7.74a.09.09,0,0,1,0,.05.46.46,0,0,0,0,.09.07.07,0,0,1,0,0,.13.13,0,0,0,0,.06,3.49,3.49,0,0,1-.12.38.27.27,0,0,1-.26.18.34.34,0,0,1-.31-.1,2,2,0,0,1-.22-.3.3.3,0,0,0,0-.1L11.35,29l0-.08-.05-.05c-1.51-2.57-3.12-5-4.83-7.49a1.29,1.29,0,0,0-.51-.47,1.08,1.08,0,0,0-.71-.09.89.89,0,0,0-.6.35.8.8,0,0,0-.08.59l1.68,7.85a.78.78,0,0,1-.09.65.71.71,0,0,1-.47.32A.77.77,0,0,1,5.09,30.44Z"/><path class="cls-2" d="M37.21,11.71a.92.92,0,0,1,.49-.37,1,1,0,0,1,.53-.05l.21.06.21.09a.83.83,0,0,1,.33.34.7.7,0,0,1,.09.39v.11l0,.07a.06.06,0,0,1-.05.06s0,0,0,.06l0,.07q-2.85,3.9-5.42,8a1.18,1.18,0,0,0-.14.23l-.11.2c0,.1-.07.23-.11.35s-.07.27-.1.44c-.42,2.18-.84,4.35-1.25,6.53a2.05,2.05,0,0,1-.91,1.35,2.48,2.48,0,0,1-1.81.32,2.45,2.45,0,0,1-1.57-.84A2,2,0,0,1,27,27.58v0L27.75,21a4.4,4.4,0,0,0,0-.48c0-.14,0-.29,0-.41s0-.13-.06-.2,0-.16-.05-.23q-.95-3.37-2-6.69c-.07-.21-.14-.4-.18-.58a1.34,1.34,0,0,1-.05-.52,1.66,1.66,0,0,1,.37-1,3,3,0,0,1,1-.8,3.36,3.36,0,0,1,.9-.27,4.33,4.33,0,0,1,.95,0h.16l.2.05a3.6,3.6,0,0,1,1.29.53,2.29,2.29,0,0,1,.86,1.12c.41,1.41.79,2.83,1.13,4.25a2,2,0,0,0,.34.9.58.58,0,0,0,.52.26,1,1,0,0,0,.49-.21,3.45,3.45,0,0,0,.52-.61C35.13,14.63,36.15,13.17,37.21,11.71Z"/><path d="M5.12,30.58A.83.83,0,0,1,4.76,30L1.37,15.89l-.07-.3-.09-.35c0-.12-.05-.24-.07-.36l0-.37a2.36,2.36,0,0,1,.14-1,2,2,0,0,1,.9-.92,5.1,5.1,0,0,1,.57-.29,4,4,0,0,1,.56-.17,2.86,2.86,0,0,1,1.79.15,3.36,3.36,0,0,1,1.41,1.17c1.68,2.26,3.25,4.57,4.75,7a1.56,1.56,0,0,0,.45.53.73.73,0,0,0,.49.11.45.45,0,0,0,.23-.07.43.43,0,0,0,.17-.18.83.83,0,0,0,.1-.23l.13-.32c1-2.64,2-5.22,3.16-7.79A5.08,5.08,0,0,1,16.91,11a2.73,2.73,0,0,1,1.95-.64,3.44,3.44,0,0,1,2.12.57,1.67,1.67,0,0,1,.75,1.44q-.24,7.5-.5,15a1.9,1.9,0,0,1-.66,1.4,2.35,2.35,0,0,1-1.64.56,2.44,2.44,0,0,1-1.68-.59,2,2,0,0,1-.7-1.39l-.25-6a10.15,10.15,0,0,0-.11-1.18c-.05-.3-.21-.45-.45-.44a.9.9,0,0,0-.67.5,9,9,0,0,0-.56,1.08.2.2,0,0,1,0,.07.16.16,0,0,1,0,.07q-1.28,3.69-2.31,7.45a.13.13,0,0,1,0,.06l0,.08a.07.07,0,0,1,0,.05.13.13,0,0,0,0,.06c0,.14-.08.27-.12.37a.28.28,0,0,1-.25.17.33.33,0,0,1-.29-.1,1.69,1.69,0,0,1-.22-.29.2.2,0,0,0,0-.09.1.1,0,0,0,0-.06.15.15,0,0,0,0-.08l0,0c-1.46-2.48-3-4.87-4.66-7.22a1.28,1.28,0,0,0-.49-.46,1,1,0,0,0-.68-.09.84.84,0,0,0-.58.35.77.77,0,0,0-.08.56L6.2,29.73a.77.77,0,0,1-.08.63.68.68,0,0,1-.46.31A.73.73,0,0,1,5.12,30.58Z"/><path d="M36.06,12.52a1,1,0,0,1,.47-.35.91.91,0,0,1,.51,0l.21,0,.19.09a.85.85,0,0,1,.33.32.88.88,0,0,1,.09.38l0,0v.12a.1.1,0,0,1,0,.06l0,.06a.15.15,0,0,0,0,.06c-1.83,2.52-3.57,5.07-5.22,7.7a1.54,1.54,0,0,0-.14.22l-.1.2a2.72,2.72,0,0,0-.11.34c0,.12-.07.26-.1.42q-.6,3.15-1.21,6.29a1.92,1.92,0,0,1-.87,1.3,2.67,2.67,0,0,1-3.26-.5,1.89,1.89,0,0,1-.46-1.47v-.05L27,21.46A2.57,2.57,0,0,0,27,21a2.42,2.42,0,0,0,0-.39.9.9,0,0,0-.05-.19c0-.08,0-.15-.06-.22-.6-2.17-1.25-4.31-2-6.45a4,4,0,0,1-.18-.56,1.44,1.44,0,0,1-.05-.5,1.63,1.63,0,0,1,.36-.92A3,3,0,0,1,26,11a3.5,3.5,0,0,1,.87-.25,4,4,0,0,1,.91,0h.16a.77.77,0,0,1,.19,0,3.26,3.26,0,0,1,1.24.51,2.16,2.16,0,0,1,.84,1.08c.39,1.35.75,2.72,1.08,4.09a2,2,0,0,0,.33.87.6.6,0,0,0,.5.25.93.93,0,0,0,.47-.21,3.52,3.52,0,0,0,.51-.58C34.06,15.34,35,13.93,36.06,12.52Z"/></svg>