<svg id="svg45394" xmlns="http://www.w3.org/2000/svg" viewBox="0 0 400.6 90.46"><defs><style>.cls-1{fill:red;}.cls-2{fill:#00a300;}</style></defs><path class="cls-1" d="M19.75,44.44c6.94,2.57,10.36,3.92,17.06,6.77,3-9.47,4.79-14.34,4.8-14.62a1.51,1.51,0,0,1,0-.49c0-.7,0-1.06,0-1.76a10.13,10.13,0,0,1,.8-4.74A5.13,5.13,0,0,1,45.18,27a4.06,4.06,0,0,1,3.31.05,4.27,4.27,0,0,1,2.3,2.45A41.38,41.38,0,0,1,53.34,39a45.57,45.57,0,0,0,2.94,10.28A42.52,42.52,0,0,0,60,56.87,25.06,25.06,0,0,1,62.3,61a5,5,0,0,1,.06,4,4.93,4.93,0,0,1-2.83,2.59,3.79,3.79,0,0,1-4.17-.76c-1.29-1.13-2.7-3.45-4.22-7a65,65,0,0,1-3.2-8.61A68.05,68.05,0,0,0,45,42.78a68.32,68.32,0,0,1-2.14,12.57c-.87,2.78-2,4.47-3.29,5.08l-.31.15c-.06,0-5.23-2.23-16.07-6.11q2.09,5.34,3.7,8.77C28,65.53,29.21,68,30.49,70.66a27.53,27.53,0,0,0,2.1,3.7c.7,1,1.17,1.62,1.32,1.89a3.17,3.17,0,0,1-.21,3.06,5.32,5.32,0,0,1-2.23,2.39,4.09,4.09,0,0,1-3.33.26,5.36,5.36,0,0,1-2.89-2.9c-1.22-2.36-2.51-5-3.74-7.88S19,65.53,17.69,62.85c-2-3.93-3-5.89-4.94-9.82-1.12-2.12-1.5-3.93-1.12-5.44A5.66,5.66,0,0,1,14.85,44,5.63,5.63,0,0,1,17,43.34a3.51,3.51,0,0,1,2.14.67Z"/><path class="cls-1" d="M66.77,40.4l2.44,2.24c1.09,1,1.83,1.75,2.23,2.12a13.76,13.76,0,0,0,1.33,1.12c0-.39.07-.7.11-.9s.07-.41.09-.61c0-.51.14-1.44.29-2.79s.3-2.37.41-3.1c.17-1.14.26-1.71.44-2.86.13-.81,1.18-1.54,3.16-2.17s2.88.15,2.75,2.33c-.26,3.75-.37,5.62-.57,9.36-.39,7.48-.69,13.63-1,18.46s-.7,9.48-1.09,13.92c-.11,1.16-.17,1.74-.27,2.9a4.12,4.12,0,0,1-.54,1.8,2.26,2.26,0,0,1-1.11.92,2.71,2.71,0,0,1-2,0A2.45,2.45,0,0,1,72,81.68,2.61,2.61,0,0,1,71.8,81c0-.22-.21-6.59.08-19.2.06-2.6.1-3.9.2-6.51-3.6-2.71-6.59-5-8.92-7s-3.65-3.32-3.93-4a3.1,3.1,0,0,1,.36-2.88,5,5,0,0,1,2.49-2,4.13,4.13,0,0,1,2.33-.2A5.19,5.19,0,0,1,66.77,40.4Z"/><path class="cls-1" d="M106,15.59l.32.76a4.53,4.53,0,0,0,.5.94c.21.32,3.78,3.3,10.34,9.17,1.65,1.49,2.47,2.24,4.09,3.74,3.13,2.93,5,4.71,5.64,5.28s1.4,1.15,2.22,1.73q-1.65-7.78-3.21-14.41c-1-4.42-1.69-7.36-1.94-8.83s-.43-2.18-.72-3.63a4.83,4.83,0,0,1,.63-3.81,4.87,4.87,0,0,1,3.35-2,3.42,3.42,0,0,1,3,.72c.73.68,1.49,3.46,2.3,8.32,1.63,10,2.45,15,4.1,25A7.85,7.85,0,0,0,137,40.3a10.9,10.9,0,0,0,1.3,2.18,12.91,12.91,0,0,1,.92,1.63,5.45,5.45,0,0,1,.45,1.39A2.88,2.88,0,0,1,138.46,48a6,6,0,0,1-3,1.59c-1.43.27-3.82-.79-7.27-3.11A75.35,75.35,0,0,1,118.65,39c-1.39-1.29-2.09-1.93-3.51-3.22a2.22,2.22,0,0,1-.54-.4c-.16-.17-2.08-1.84-5.86-4.95.75,6.24,1.87,10.56,3.28,13s2,3.36,1.89,2.79a4.4,4.4,0,0,1-.88,3.22,5.53,5.53,0,0,1-3.36,2.33,4.19,4.19,0,0,1-4.29-1c-1.13-1.13-1.85-3.14-2.18-6-.15-1.35-.32-2.58-.52-3.7s-.45-2.35-.77-3.73c-1.74-7-2.6-10.57-4.32-17.62A4.22,4.22,0,0,1,98.18,16a6.18,6.18,0,0,1,3.75-2.29,3.9,3.9,0,0,1,2.41,0A3.53,3.53,0,0,1,106,15.59Z"/><path class="cls-1" d="M146.31,20.43c.77,1.07,1.15,1.61,1.91,2.7L150,25.66c.32.45.67.91,1.06,1.37.12-.38.22-.67.29-.87s.15-.38.21-.57c.14-.5.42-1.38.84-2.67s.77-2.26,1-3l1-2.7c.29-.77,1.45-1.27,3.5-1.49s2.76.75,2.19,2.86c-1,3.61-1.49,5.42-2.43,9-1.88,7.23-3.41,13.19-4.7,17.85s-2.57,9.12-3.84,13.39c-.34,1.11-.51,1.67-.84,2.78a4.11,4.11,0,0,1-.88,1.65,2.23,2.23,0,0,1-1.26.67,2.71,2.71,0,0,1-2-.42,2.47,2.47,0,0,1-1.09-1.72,2.44,2.44,0,0,1,0-.66c0-.22,1.11-6.49,3.92-18.77.58-2.53.88-3.79,1.5-6.33-2.94-3.38-5.36-6.28-7.22-8.7s-2.86-4-3-4.76a3.1,3.1,0,0,1,.93-2.74A4.82,4.82,0,0,1,142,18.43a4.07,4.07,0,0,1,2.29.29A5.16,5.16,0,0,1,146.31,20.43Z"/><path class="cls-1" d="M187.7,35.73l0,.92a5.47,5.47,0,0,1-.94,3.77,4,4,0,0,1-3.1,1.38,4.36,4.36,0,0,1-2.43-.69,2.16,2.16,0,0,1-1.16-1.89c-1.67.57-3.06,1-4.19,1.29a20,20,0,0,1-3.17.54,11.33,11.33,0,0,1-6.42-1.11,5.27,5.27,0,0,1-2.91-4.36c-.3-3.18,1.18-6.27,4.68-9.1a14.58,14.58,0,0,1,11.65-3.33c0-.71-.06-1.07-.11-1.79a2.31,2.31,0,0,0-.5-1.61,2.08,2.08,0,0,0-1.43-.29,6.45,6.45,0,0,0-2.22.59,37.55,37.55,0,0,0-5.22,3.56c-1.44,1.11-2.73,1.52-3.9,1.23a2.44,2.44,0,0,1-1.89-2.39c-.15-1.66,1.27-3.59,4.49-5.64a19.65,19.65,0,0,1,9.25-3.33c3-.17,5.3.53,6.73,2s2.24,3.93,2.42,7.34c.11,2.78.16,4.17.28,7a4.07,4.07,0,0,1,1.92,1.15,2.61,2.61,0,0,1,.79,1.69,2.35,2.35,0,0,1-.46,1.52A7.78,7.78,0,0,1,187.7,35.73ZM180,32.85l0-.44c-.1-1.7-.4-2.71-.89-3a3.56,3.56,0,0,0-2.19-.38,7,7,0,0,0-4.24,1.84c-1.27,1.12-1.87,2.1-1.8,2.93a1.31,1.31,0,0,0,.6,1,2.26,2.26,0,0,0,1.45.29,17,17,0,0,0,3.42-.69A18.53,18.53,0,0,0,180,32.85Z"/><path class="cls-1" d="M204.14,26.59,202.61,28q-.12,1.57-.12,2.88c0,.88.07,2.1.13,3.6a6.63,6.63,0,0,1-1.09,4.38,4,4,0,0,1-3.28,1.47,2.87,2.87,0,0,1-2.44-.94c-.53-.64-.82-2-.86-3.95,0-.51,0-1.85.06-4s.1-4.51.13-7c0-.18,0-.4,0-.65s0-1.56-.08-3.81c-.05-1.73.22-2.94.91-3.59a4.35,4.35,0,0,1,3-1.05,4.3,4.3,0,0,1,3.22,1.21,3.81,3.81,0,0,1,.88,3.29,50.18,50.18,0,0,1,6.58-3.51A7.79,7.79,0,0,1,212,15.8a2.49,2.49,0,0,1,2,.92,4.12,4.12,0,0,1,.81,2.48,40,40,0,0,1,5.26-3,8.38,8.38,0,0,1,3.45-.9,4.15,4.15,0,0,1,3.37,1.44,5.88,5.88,0,0,1,.8,3.86,38,38,0,0,1-.87,7,16.68,16.68,0,0,0-.64,3.56c0,.72-.06,1.32-.05,1.79a2.87,2.87,0,0,0,.23,1.16c.11.29.16.44.26.73a4,4,0,0,1-.43,3.52c-.68,1.12-1.89,1.63-3.62,1.54a4.07,4.07,0,0,1-3.32-1.52,6.27,6.27,0,0,1-.92-4c0-.8.17-2.16.41-4.07s.45-4,.63-6.3v-.4c0-.13,0-.27,0-.41a4.75,4.75,0,0,0-.06-.77c0-.07-.05-.11-.09-.11a5.3,5.3,0,0,0-2.12,1.14,23.23,23.23,0,0,0-2.69,2.23c0,.36,0,.67,0,.9s.05,1.2,0,2.75c0,1.06,0,2,0,2.75s.13,1.44.12,2a6.38,6.38,0,0,1-1.37,4.21,3.57,3.57,0,0,1-2.82,1.35,3.38,3.38,0,0,1-2.83-1.18,5.81,5.81,0,0,1-.86-3.61A44.16,44.16,0,0,1,207,29.2a21.79,21.79,0,0,0,.31-3.18,2.25,2.25,0,0,0-.08-.76c-.06-.19-.13-.28-.21-.28a4.1,4.1,0,0,0-1.39.61A11,11,0,0,0,204.14,26.59Z"/><path class="cls-1" d="M242.65,21.17l2-.24c1.56-.16,3-.25,4.38-.28a26.44,26.44,0,0,1,3.47.09A13.48,13.48,0,0,1,257,22.07c1.25.62,1.81,1.3,1.71,2a2.55,2.55,0,0,1-1,1.76c-.54.42-2.33.74-5.36,1l-2,.19c-.51.05-1,.13-1.52.23s-1.07.23-1.66.39c-1.67.46-2.64.73-2.93.77s-.55.07-.76.08l-2.74.27c-2.82.31-4.87.13-6.19-.58a2.87,2.87,0,0,1-1.78-2.9,3.08,3.08,0,0,1,1.84-2.39C235.79,22.31,238.45,21.69,242.65,21.17Z"/><path class="cls-1" d="M277.58,10.74c0,.33,0,.49,0,.83a4.92,4.92,0,0,0,.06,1.06c.07.38,2.1,4.55,5.69,12.59.9,2,1.34,3.05,2.21,5.08,1.66,4,2.63,6.34,3,7.13s.81,1.61,1.32,2.48c1.11-5.18,2.1-10,2.95-14.46s1.47-7.41,1.84-8.85.5-2.17.83-3.61a4.86,4.86,0,0,1,2.13-3.23,4.9,4.9,0,0,1,3.88-.44,3.42,3.42,0,0,1,2.5,1.9q.57,1.38-1.3,8.54c-2.6,9.81-3.9,14.72-6.49,24.53a7.49,7.49,0,0,0-.36,1.68,10.52,10.52,0,0,0,.3,2.52,12.2,12.2,0,0,1,.17,1.86,5.34,5.34,0,0,1-.15,1.45A2.88,2.88,0,0,1,294,53.62a6.09,6.09,0,0,1-3.37.23c-1.42-.34-3.18-2.28-5.38-5.81a74.2,74.2,0,0,1-5.64-10.8c-.74-1.75-1.12-2.62-1.88-4.37a2,2,0,0,1-.33-.59c-.08-.22-1.15-2.53-3.33-6.91-1.85,6-2.6,10.41-2.3,13.19s.48,3.89.58,3.32a4.29,4.29,0,0,1-2.11,2.57,5.43,5.43,0,0,1-4,.77,4.18,4.18,0,0,1-3.49-2.68c-.56-1.48-.41-3.62.47-6.37.41-1.29.75-2.49,1-3.59s.55-2.33.82-3.73c1.29-7.13,1.94-10.7,3.25-17.83a4.24,4.24,0,0,1,2-3.12,6.16,6.16,0,0,1,4.34-.56,3.86,3.86,0,0,1,2.19,1A3.54,3.54,0,0,1,277.58,10.74Z"/><path class="cls-1" d="M312.49,31.64c.26,1.3.39,2,.64,3.25.28,1.47.46,2.48.56,3a17.34,17.34,0,0,0,.42,1.69c.26-.3.47-.53.62-.67s.29-.29.42-.44c.34-.39,1-1.09,1.87-2.09s1.63-1.75,2.15-2.28l2-2c.58-.58,1.86-.56,3.83.09s2.24,1.82.85,3.5c-2.4,2.89-3.59,4.34-5.94,7.25-4.7,5.83-8.55,10.63-11.64,14.36s-6.1,7.27-9,10.64c-.77.87-1.15,1.31-1.91,2.19a4.17,4.17,0,0,1-1.48,1.15,2.21,2.21,0,0,1-1.43.09,2.61,2.61,0,0,1-1.62-1.19,2.43,2.43,0,0,1-.3-2,2.28,2.28,0,0,1,.24-.61c.11-.2,3.67-5.47,11.28-15.52,1.57-2.08,2.36-3.11,4-5.17-1.31-4.29-2.35-7.93-3.06-10.9s-1-4.82-.8-5.56a3.12,3.12,0,0,1,2-2.13,4.84,4.84,0,0,1,3.2-.2,4.12,4.12,0,0,1,2,1.19A5.31,5.31,0,0,1,312.49,31.64Z"/><path class="cls-1" d="M344.45,62.69c-.14.35-.2.52-.34.86a5.4,5.4,0,0,1-2.42,3,4.13,4.13,0,0,1-3.44,0,4.49,4.49,0,0,1-2-1.64,2.15,2.15,0,0,1-.29-2.2c-1.79-.17-3.26-.36-4.42-.57a20.62,20.62,0,0,1-3.15-.81,11.6,11.6,0,0,1-5.48-3.67,5.27,5.27,0,0,1-.9-5.18c1-3,3.67-5.23,8.06-6.37a14.91,14.91,0,0,1,12.14,1.79l.64-1.68a2.24,2.24,0,0,0,.19-1.67,2.06,2.06,0,0,0-1.2-.86,6.82,6.82,0,0,0-2.29-.39,38.37,38.37,0,0,0-6.3,1.1c-1.79.41-3.15.25-4.11-.5a2.43,2.43,0,0,1-.76-3c.53-1.57,2.64-2.75,6.46-3.28a19.87,19.87,0,0,1,9.92.79c2.88,1.1,4.7,2.68,5.42,4.63s.46,4.51-.77,7.69c-1,2.59-1.56,3.88-2.59,6.46a4.16,4.16,0,0,1,1.31,1.86,2.58,2.58,0,0,1,0,1.87,2.28,2.28,0,0,1-1.05,1.19A7.89,7.89,0,0,1,344.45,62.69Zm-6-5.84.15-.41q.9-2.38.42-3.12a3.76,3.76,0,0,0-1.88-1.26,7.17,7.17,0,0,0-4.67-.07c-1.64.49-2.59,1.14-2.87,1.93a1.28,1.28,0,0,0,.14,1.17A2.25,2.25,0,0,0,331,56a17.34,17.34,0,0,0,3.45.78A18.28,18.28,0,0,0,338.46,56.85Z"/><path class="cls-1" d="M363.49,61.23l-2,.65c-.5.93-.93,1.79-1.29,2.59s-.79,1.93-1.36,3.32A6.48,6.48,0,0,1,356,71.33a4.13,4.13,0,0,1-3.66,0,3,3,0,0,1-1.89-1.87c-.22-.81,0-2.13.83-4,.2-.47.77-1.68,1.7-3.62s1.95-4.08,3-6.38c.07-.17.16-.37.25-.6s.64-1.42,1.5-3.51c.65-1.59,1.41-2.59,2.31-2.89a5,5,0,0,1,5.7,2.73,3.75,3.75,0,0,1-.53,3.37,53.3,53.3,0,0,1,7.58-.44,8.29,8.29,0,0,1,2.41.57,2.62,2.62,0,0,1,1.48,1.68,4.11,4.11,0,0,1-.26,2.6,41.07,41.07,0,0,1,6.14-.51,8.81,8.81,0,0,1,3.61.64,4.34,4.34,0,0,1,2.56,2.74,5.76,5.76,0,0,1-.84,3.87,36.85,36.85,0,0,1-3.68,6,16.87,16.87,0,0,0-2.06,3q-.51,1-.78,1.62a2.85,2.85,0,0,0-.26,1.15l0,.77a4,4,0,0,1-1.85,3q-1.65,1.09-4-.14a4.24,4.24,0,0,1-2.48-2.79,6.13,6.13,0,0,1,.77-4c.36-.71,1-1.89,2.05-3.54s2.07-3.47,3.17-5.47l.18-.37c.06-.11.13-.24.18-.36a3.82,3.82,0,0,0,.26-.73c0-.07,0-.12,0-.14a5.28,5.28,0,0,0-2.45.15,23.16,23.16,0,0,0-3.43.89l-.39.81c-.11.21-.45,1.11-1.09,2.53-.44,1-.84,1.82-1.09,2.52s-.48,1.37-.71,1.87a6.34,6.34,0,0,1-3,3.26,3.72,3.72,0,0,1-3.19,0,3.57,3.57,0,0,1-2.16-2.27,5.81,5.81,0,0,1,.68-3.65,43.06,43.06,0,0,1,2.64-5.05,23,23,0,0,0,1.6-2.77,2.68,2.68,0,0,0,.23-.73c0-.19,0-.31-.09-.34a4,4,0,0,0-1.54,0A11.06,11.06,0,0,0,363.49,61.23Z"/><path class="cls-2" d="M111.74,72.71l.68-.18c1.06-.29,1.64-.46,1.73-.51l.33-.16a8.65,8.65,0,0,1,.69-2.8,1.08,1.08,0,0,1,1.18-.56,1.29,1.29,0,0,1,.79.47,1,1,0,0,1,.19.87.26.26,0,0,0,0,.1,3.27,3.27,0,0,1-.12.47c0,.11-.08.24-.11.37a4.58,4.58,0,0,0-.06.47c0,.1,0,.16,0,.15s-.1,1.36-.27,4.1c0,.49,0,.73-.08,1.22a5.29,5.29,0,0,1-.53,2.43,1.22,1.22,0,0,1-1.17.36,1.18,1.18,0,0,1-.86-.62,2.64,2.64,0,0,1-.27-1.4,11.55,11.55,0,0,1,.15-1.38c.09-.63.22-1.32.37-2.09l-2.56,1-.25.08c-.06,2-.09,3-.09,3h0a1.32,1.32,0,0,1-.57.89,1.42,1.42,0,0,1-1,.19,1.17,1.17,0,0,1-.81-.48,1.29,1.29,0,0,1-.17-1l.08-.51a6.23,6.23,0,0,0,.07-.69c0-.31,0-.62.08-.94a1.25,1.25,0,0,1-.77-.38.82.82,0,0,1-.18-.72,1.53,1.53,0,0,1,.31-.76,1.79,1.79,0,0,1,.8-.4c0-.26.09-.67.18-1.24s.19-1.11.29-1.62a3.2,3.2,0,0,1,.65-1.63,1.22,1.22,0,0,1,1.13-.37,1,1,0,0,1,.7.51,1.44,1.44,0,0,1,.15,1c0,.18-.09.38-.13.58s-.09.39-.13.58-.13.62-.18.87S111.77,72.45,111.74,72.71Z"/><path class="cls-2" d="M126.47,79.29l0,.37a2.08,2.08,0,0,1-.6,1.26,1.43,1.43,0,0,1-1.17.29,1.2,1.2,0,0,1-1.14-1.16,7.07,7.07,0,0,1-1.41.21,6.69,6.69,0,0,1-1.29-.05,3.78,3.78,0,0,1-2.13-1,2.06,2.06,0,0,1-.62-1.89,3.81,3.81,0,0,1,2.21-2.72,6.11,6.11,0,0,1,4.37-.47l.11-.79a1,1,0,0,0-.12-.76,1.06,1.06,0,0,0-.69-.3,3.9,3.9,0,0,0-1.13,0,8.57,8.57,0,0,0-1.42.37,1.51,1.51,0,0,1-1.36,0,1,1,0,0,1-.36-1c.08-.56.68-1,1.83-1.27a8.33,8.33,0,0,1,3.26-.21,2.74,2.74,0,0,1,2.1,1.27,4.78,4.78,0,0,1,.34,3c-.13,1-.19,1.43-.32,2.38a1.23,1.23,0,0,1,.9.45,1.1,1.1,0,0,1,.27.85,1,1,0,0,1-.4.7A3.19,3.19,0,0,1,126.47,79.29ZM124,77.68l0-.14a1.34,1.34,0,0,0-.1-1,1.25,1.25,0,0,0-.76-.32,2.71,2.71,0,0,0-1.57.27c-.52.25-.8.54-.85.85a.48.48,0,0,0,.12.43.73.73,0,0,0,.47.23,4.7,4.7,0,0,0,1.3,0A5.84,5.84,0,0,0,124,77.68Z"/><path class="cls-2" d="M132.71,76.73l-.6.47c-.08.4-.14.76-.18,1.09s-.08.8-.13,1.37a2.61,2.61,0,0,1-.61,1.62,1.38,1.38,0,0,1-1.25.39,1,1,0,0,1-.82-.48,2.86,2.86,0,0,1-.07-1.55c0-.19.11-.7.25-1.51s.3-1.7.45-2.66l0-.25c0-.1.08-.59.19-1.45a2,2,0,0,1,.5-1.31,1.49,1.49,0,0,1,2.05.35,1.66,1.66,0,0,1,.13,1.29A19.08,19.08,0,0,1,135,73a2.37,2.37,0,0,1,.8-.1.79.79,0,0,1,.63.41,1.74,1.74,0,0,1,.18,1,14.84,14.84,0,0,1,1.86-1,2.64,2.64,0,0,1,1.17-.28,1.34,1.34,0,0,1,1.09.61,2.47,2.47,0,0,1,.18,1.49,16.67,16.67,0,0,1-.44,2.66,6.82,6.82,0,0,0-.31,1.35,6.58,6.58,0,0,0-.05.68,1,1,0,0,0,.06.45l.07.28a1.63,1.63,0,0,1-.22,1.34,1.28,1.28,0,0,1-1.34.52,1.39,1.39,0,0,1-1.15-.66,2.4,2.4,0,0,1-.21-1.53c0-.31.12-.82.27-1.55s.27-1.52.4-2.38l0-.16a.77.77,0,0,0,0-.15,1.35,1.35,0,0,0,0-.3s0,0,0,0-.37.11-.76.38a9.52,9.52,0,0,0-1,.77l0,.35c0,.09,0,.45-.08,1,0,.4-.08.76-.09,1a5.87,5.87,0,0,1,0,.76,2.53,2.53,0,0,1-.63,1.56,1.28,1.28,0,0,1-1.07.42,1.18,1.18,0,0,1-1-.56,2.32,2.32,0,0,1-.15-1.41,17.28,17.28,0,0,1,.37-2.15,10.5,10.5,0,0,0,.24-1.2,1,1,0,0,0,0-.29c0-.07,0-.11-.06-.11a1.39,1.39,0,0,0-.51.17A4.33,4.33,0,0,0,132.71,76.73Z"/><path class="cls-2" d="M150.15,80.54c0,.36.07.55.12.91a3.38,3.38,0,0,1-.17,2,1.23,1.23,0,0,1-1.29.55,1.21,1.21,0,0,1-.89-.5,1.63,1.63,0,0,1-.26-1.18,4.09,4.09,0,0,1-1.26.75,3,3,0,0,1-1.34.18,2.24,2.24,0,0,1-2-1.51,10.12,10.12,0,0,1-.22-4.24c.09-.9.14-1.35.22-2.24a2.88,2.88,0,0,1,.53-1.61,1.29,1.29,0,0,1,2,.12,4.46,4.46,0,0,1,.11,2.06l-.25,2.45a6.31,6.31,0,0,0,0,1.92.68.68,0,0,0,.61.59.94.94,0,0,0,.94-.59,8.8,8.8,0,0,0,.55-2.86c0-.59.08-.89.13-1.48a3.17,3.17,0,0,1,.46-1.66,1.12,1.12,0,0,1,1.07-.41,1.1,1.1,0,0,1,.89.54,2.45,2.45,0,0,1,.19,1.45c-.06.6-.08.9-.14,1.5a13.39,13.39,0,0,0-.11,1.86A9.36,9.36,0,0,0,150.15,80.54Z"/><path class="cls-2" d="M160.83,82.16c-.05.67-.59,1.24-1.59,1.67a6.72,6.72,0,0,1-3.28.5,4.87,4.87,0,0,1-3.15-1.44,4.05,4.05,0,0,1-1.1-3.38,5.27,5.27,0,0,1,2-3.56,4.81,4.81,0,0,1,3.6-1.4,3.44,3.44,0,0,1,1.55.52c.47.28.68.6.66,1a1,1,0,0,1-.44.74,1.24,1.24,0,0,1-.84.27.56.56,0,0,1-.45-.29.48.48,0,0,0-.4-.28,2.28,2.28,0,0,0-1.86.86,3.26,3.26,0,0,0-1,1.93,2.24,2.24,0,0,0,.5,1.69,2.32,2.32,0,0,0,1.66.78,3.61,3.61,0,0,0,1.73-.26A3.44,3.44,0,0,1,160,81.2a.92.92,0,0,1,.61.3A.85.85,0,0,1,160.83,82.16Z"/><path class="cls-2" d="M164.32,78.87l.65-.25c1-.39,1.58-.62,1.67-.68l.31-.2a8.15,8.15,0,0,1,.41-2.84,1,1,0,0,1,1.11-.68,1.22,1.22,0,0,1,.82.38,1,1,0,0,1,.28.85l0,.11a2.55,2.55,0,0,1-.07.47,3.91,3.91,0,0,0-.07.39c0,.13,0,.29,0,.47s0,.16,0,.15,0,1.36.14,4.11c0,.49,0,.73,0,1.22a5.11,5.11,0,0,1-.28,2.47,1.2,1.2,0,0,1-1.13.47,1.13,1.13,0,0,1-.91-.52,2.62,2.62,0,0,1-.41-1.37,13.1,13.1,0,0,1,0-1.39c0-.63.09-1.34.16-2.11l-2.43,1.24-.25.11c.14,2,.21,3,.21,3h0a1.29,1.29,0,0,1-.48.94,1.37,1.37,0,0,1-1,.3,1.2,1.2,0,0,1-.86-.39,1.35,1.35,0,0,1-.27-1l0-.52c0-.16,0-.39,0-.7s0-.62,0-.94a1.25,1.25,0,0,1-.81-.29.83.83,0,0,1-.25-.7,1.4,1.4,0,0,1,.24-.79,1.63,1.63,0,0,1,.74-.48c0-.26,0-.68.06-1.25s.08-1.12.13-1.64a3.15,3.15,0,0,1,.48-1.69,1.2,1.2,0,0,1,1.08-.48,1,1,0,0,1,.75.44,1.42,1.42,0,0,1,.25,1c0,.19-.05.39-.07.6s-.05.4-.07.59-.07.62-.09.88A6.57,6.57,0,0,0,164.32,78.87Z"/><path class="cls-2" d="M179.3,82.45c.07.36.1.54.18.91a3.4,3.4,0,0,1-.07,2,1.37,1.37,0,0,1-2.17.17,1.68,1.68,0,0,1-.32-1.17,4.07,4.07,0,0,1-1.22.83,3.14,3.14,0,0,1-1.33.25,2.25,2.25,0,0,1-2.1-1.4,10,10,0,0,1-.45-4.22l.1-2.25a2.85,2.85,0,0,1,.43-1.64,1.29,1.29,0,0,1,2.05,0,4.63,4.63,0,0,1,.22,2.06c-.05,1-.07,1.47-.12,2.45a6.6,6.6,0,0,0,.1,1.92.67.67,0,0,0,.63.56,1,1,0,0,0,.92-.65,9,9,0,0,0,.39-2.88c0-.59,0-.89,0-1.48a3.25,3.25,0,0,1,.37-1.69,1.11,1.11,0,0,1,1.05-.46,1.05,1.05,0,0,1,.91.48,2.4,2.4,0,0,1,.27,1.44l-.05,1.5a13,13,0,0,0,0,1.87A8.66,8.66,0,0,0,179.3,82.45Z"/><path class="cls-2" d="M189.14,79.94l.64-.28c1-.44,1.55-.69,1.64-.75l.3-.22a8.28,8.28,0,0,1,.27-2.86,1.07,1.07,0,0,1,1.08-.73,1.27,1.27,0,0,1,.84.35,1,1,0,0,1,.32.83.52.52,0,0,0,0,.11,4.47,4.47,0,0,1-.05.48c0,.12,0,.25-.06.38a3.8,3.8,0,0,0,0,.47.79.79,0,0,1,0,.16s.1,1.36.32,4.1l.1,1.21a5.18,5.18,0,0,1-.16,2.48,1.2,1.2,0,0,1-1.11.53,1.14,1.14,0,0,1-.93-.48,2.63,2.63,0,0,1-.48-1.35c0-.29-.05-.76-.05-1.39s0-1.34.06-2.12l-2.37,1.36-.24.12c.23,2,.35,3,.35,3h0a1.35,1.35,0,0,1-.43,1,1.42,1.42,0,0,1-1,.35,1.23,1.23,0,0,1-.87-.36,1.33,1.33,0,0,1-.32-1l0-.53c0-.15,0-.38,0-.69s0-.62-.05-.94a1.19,1.19,0,0,1-.82-.26.78.78,0,0,1-.28-.68,1.39,1.39,0,0,1,.2-.8,1.66,1.66,0,0,1,.72-.51c0-.27,0-.68,0-1.25s0-1.13,0-1.65a3.27,3.27,0,0,1,.4-1.71,1.21,1.21,0,0,1,1.06-.53.94.94,0,0,1,.76.4,1.42,1.42,0,0,1,.3,1c0,.19,0,.39,0,.59s0,.4-.05.59,0,.63,0,.89A6.77,6.77,0,0,0,189.14,79.94Z"/><path class="cls-2" d="M204.62,84.3v.37a2,2,0,0,1-.41,1.33,1.43,1.43,0,0,1-1.11.46,1.34,1.34,0,0,1-.86-.26,1.2,1.2,0,0,1-.43-.72,7.13,7.13,0,0,1-1.37.41,6.58,6.58,0,0,1-1.28.14,3.73,3.73,0,0,1-2.24-.65,2.07,2.07,0,0,1-.88-1.78,3.76,3.76,0,0,1,1.78-3,6,6,0,0,1,4.24-1.1c0-.32,0-.48,0-.8a1,1,0,0,0-.22-.74,1.1,1.1,0,0,0-.73-.19,3.78,3.78,0,0,0-1.11.18,7.92,7.92,0,0,0-1.35.57,1.48,1.48,0,0,1-1.34.18,1,1,0,0,1-.51-1c0-.56.53-1.08,1.62-1.52a8.18,8.18,0,0,1,3.19-.68,2.72,2.72,0,0,1,2.26.94,4.87,4.87,0,0,1,.77,2.91l0,2.4a1.2,1.2,0,0,1,1,.32,1,1,0,0,1,.39.79,1,1,0,0,1-.29.76A3.29,3.29,0,0,1,204.62,84.3ZM202,83.06v-.14c0-.52-.09-.84-.25-1a1.22,1.22,0,0,0-.8-.21,2.66,2.66,0,0,0-1.51.49c-.48.33-.71.65-.71,1a.51.51,0,0,0,.18.41.75.75,0,0,0,.5.16,5.29,5.29,0,0,0,1.28-.19A6.38,6.38,0,0,0,202,83.06Z"/><path class="cls-2" d="M219.71,83.77a5.57,5.57,0,0,1-2,1.43,5.94,5.94,0,0,1-2.34.64,3.41,3.41,0,0,1-2.6-.93,4,4,0,0,1-1-2.88,6.67,6.67,0,0,1,1.4-4.38,4.26,4.26,0,0,1,3.24-1.94,2,2,0,0,1,1.31.4,1.38,1.38,0,0,1,.59,1.1,4.4,4.4,0,0,1-.86,2.27,21.44,21.44,0,0,1-2.81,3.31,1.45,1.45,0,0,0,.49.59,1.2,1.2,0,0,0,.66.13,3.88,3.88,0,0,0,1.15-.24,9.65,9.65,0,0,0,1.7-.9.94.94,0,0,1,1-.11.84.84,0,0,1,.46.77.86.86,0,0,1-.07.34A2,2,0,0,1,219.71,83.77Zm-4.4-4.71.37-.49c.1-.18.15-.27.26-.45-.34,0-.68.2-1,.68a2.3,2.3,0,0,0-.51,1.39l.94-1.15S215.3,79.09,215.31,79.06Z"/><path class="cls-2" d="M223.46,80.43,223,81q0,.6,0,1.11c0,.33.06.79.11,1.37a2.62,2.62,0,0,1-.32,1.69,1.42,1.42,0,0,1-1.16.61,1,1,0,0,1-.89-.34,2.79,2.79,0,0,1-.34-1.51c0-.2,0-.71,0-1.54s0-1.73,0-2.7v-.25c0-.1,0-.59-.06-1.46a2,2,0,0,1,.28-1.38,1.32,1.32,0,0,1,1-.42,1.35,1.35,0,0,1,1.09.42,1.66,1.66,0,0,1,.35,1.25,19.23,19.23,0,0,1,2.13-1.47,2.46,2.46,0,0,1,.78-.24.81.81,0,0,1,.69.3,1.76,1.76,0,0,1,.34.93,13.48,13.48,0,0,1,1.66-1.31,2.4,2.4,0,0,1,1.11-.47,1.28,1.28,0,0,1,1.17.41,2.55,2.55,0,0,1,.43,1.43,15.77,15.77,0,0,1,0,2.7,6.6,6.6,0,0,0-.06,1.38,5.54,5.54,0,0,0,.06.69,1.15,1.15,0,0,0,.13.43l.12.26a1.65,1.65,0,0,1,0,1.36,1.27,1.27,0,0,1-1.23.74,1.41,1.41,0,0,1-1.24-.45,2.5,2.5,0,0,1-.47-1.48c0-.31,0-.83,0-1.57s0-1.54,0-2.42V78.9a.71.71,0,0,1,0-.15,2.1,2.1,0,0,0-.05-.29s0,0,0,0-.34.17-.69.51a9.73,9.73,0,0,0-.85.93l0,.34c0,.09,0,.45.1,1,0,.41,0,.77.1,1s.08.54.1.76a2.62,2.62,0,0,1-.36,1.65,1.29,1.29,0,0,1-1,.59,1.21,1.21,0,0,1-1-.39,2.42,2.42,0,0,1-.38-1.36,19.83,19.83,0,0,1,0-2.18,7.79,7.79,0,0,0,0-1.23,1.06,1.06,0,0,0,0-.29c0-.06,0-.1-.08-.1A1.41,1.41,0,0,0,224,80,3.2,3.2,0,0,0,223.46,80.43Z"/><path class="cls-2" d="M241.28,81.2c.11.36.17.53.28.88a3.37,3.37,0,0,1,.17,2,1.22,1.22,0,0,1-1.17.76,1.18,1.18,0,0,1-1-.34,1.63,1.63,0,0,1-.46-1.12,4.06,4.06,0,0,1-1.12,1,3,3,0,0,1-1.29.4,2.24,2.24,0,0,1-2.25-1.14,10.07,10.07,0,0,1-.94-4.14c-.06-.9-.09-1.35-.16-2.25a2.91,2.91,0,0,1,.24-1.67,1.3,1.3,0,0,1,2-.23,4.59,4.59,0,0,1,.45,2c.07,1,.1,1.48.17,2.46a6.83,6.83,0,0,0,.32,1.89.7.7,0,0,0,.7.48.94.94,0,0,0,.83-.75,8.65,8.65,0,0,0,.05-2.91c-.05-.59-.07-.88-.13-1.47a3.25,3.25,0,0,1,.18-1.72,1.13,1.13,0,0,1,1-.59,1.1,1.1,0,0,1,1,.38,2.46,2.46,0,0,1,.43,1.4c0,.6.07.9.12,1.5a12.88,12.88,0,0,0,.21,1.85A9.72,9.72,0,0,0,241.28,81.2Z"/><path class="cls-2" d="M248.36,75.18l.49-.82a1.4,1.4,0,0,1,1.25-.76.75.75,0,0,1,.86.74,3.63,3.63,0,0,1-.88,2.35,4.89,4.89,0,0,1-1.89,1.75A4.45,4.45,0,0,1,251,79.76a4.26,4.26,0,0,1,1.39,2.68,1.27,1.27,0,0,1-.27,1,1.39,1.39,0,0,1-.92.47,1.21,1.21,0,0,1-.74-.14,1.43,1.43,0,0,1-.51-.77,3.64,3.64,0,0,0-1.61-2,4.08,4.08,0,0,0-2.44-.4c.07.28.16.68.27,1.22a9.91,9.91,0,0,1,.19,1.07,1.61,1.61,0,0,1-.35,1.17,1.38,1.38,0,0,1-1,.51,1.34,1.34,0,0,1-1.14-.31,4,4,0,0,1-.49-2c-.06-.66-.16-1.43-.26-2.31s-.18-1.66-.27-2.31-.14-.88-.16-1,0-.31,0-.49a2.4,2.4,0,0,1,.16-1.16.94.94,0,0,1,.82-.49,1.41,1.41,0,0,1,1,.21,1.57,1.57,0,0,1,.46.89c0,.21.06.48.09.78s.1.87.2,1.68a13,13,0,0,0,2-1.52A7,7,0,0,0,248.36,75.18Z"/><path class="cls-2" d="M260.88,80.62A5.62,5.62,0,0,1,259,82.2a5.88,5.88,0,0,1-2.28.81,3.41,3.41,0,0,1-2.67-.72,4,4,0,0,1-1.26-2.79A6.75,6.75,0,0,1,253.87,75,4.28,4.28,0,0,1,257,72.84a2,2,0,0,1,1.35.3,1.42,1.42,0,0,1,.67,1,4.27,4.27,0,0,1-.69,2.33A21.64,21.64,0,0,1,255.73,80a1.48,1.48,0,0,0,.54.55,1.35,1.35,0,0,0,.66.08,3.9,3.9,0,0,0,1.14-.34,9.05,9.05,0,0,0,1.63-1,.93.93,0,0,1,1-.18.82.82,0,0,1,.51.72.72.72,0,0,1,0,.35A2.28,2.28,0,0,1,260.88,80.62Zm-4.76-4.36c.13-.2.19-.31.33-.51l.22-.47c-.34,0-.67.25-1,.76a2.26,2.26,0,0,0-.4,1.42c.59-.85.87-1.26.85-1.22S256.11,76.29,256.12,76.26Z"/><path class="cls-2" d="M264.36,77l-.46.6c0,.4.05.77.09,1.1s.12.79.21,1.36a2.59,2.59,0,0,1-.19,1.71,1.42,1.42,0,0,1-1.11.7,1.07,1.07,0,0,1-.92-.27,2.9,2.9,0,0,1-.45-1.48c0-.2-.06-.71-.13-1.53s-.13-1.73-.21-2.7l0-.25c0-.09-.06-.59-.17-1.45a2,2,0,0,1,.16-1.39,1.34,1.34,0,0,1,1-.5,1.37,1.37,0,0,1,1.12.34,1.6,1.6,0,0,1,.45,1.21,18.92,18.92,0,0,1,2-1.62,2.3,2.3,0,0,1,.76-.3.79.79,0,0,1,.71.25,1.64,1.64,0,0,1,.41.89,17.19,17.19,0,0,1,1.56-1.44,2.65,2.65,0,0,1,1.07-.55,1.3,1.3,0,0,1,1.2.32,2.5,2.5,0,0,1,.55,1.4,16.86,16.86,0,0,1,.22,2.68,7,7,0,0,0,0,1.39c0,.27.07.5.11.68a1.21,1.21,0,0,0,.17.41l.14.26a1.63,1.63,0,0,1,.11,1.35,1.3,1.3,0,0,1-1.17.84,1.43,1.43,0,0,1-1.28-.36,2.53,2.53,0,0,1-.58-1.44q-.06-.45-.12-1.56c0-.74-.1-1.54-.19-2.41l0-.16s0-.1,0-.15a2.39,2.39,0,0,0-.07-.29s0,0,0,0-.32.21-.64.56a11.12,11.12,0,0,0-.78,1l.05.34c0,.09.08.45.18,1,.06.4.11.76.17,1s.13.53.16.74a2.49,2.49,0,0,1-.23,1.67,1.26,1.26,0,0,1-.93.67,1.16,1.16,0,0,1-1.07-.31,2.33,2.33,0,0,1-.49-1.32,18.86,18.86,0,0,1-.18-2.18,8.65,8.65,0,0,0-.05-1.22,1.13,1.13,0,0,0-.07-.28c0-.07-.06-.1-.09-.1a1.34,1.34,0,0,0-.44.3A3.51,3.51,0,0,0,264.36,77Z"/><path class="cls-2" d="M279.46,71.35l.45-.85a1.41,1.41,0,0,1,1.2-.83.76.76,0,0,1,.91.69,3.68,3.68,0,0,1-.75,2.4,4.91,4.91,0,0,1-1.78,1.86,4.46,4.46,0,0,1,2.85,1.15,4.23,4.23,0,0,1,1.55,2.59,1.31,1.31,0,0,1-.21,1,1.39,1.39,0,0,1-.89.52,1.18,1.18,0,0,1-.75-.1,1.34,1.34,0,0,1-.55-.73,3.7,3.7,0,0,0-1.73-1.9,4,4,0,0,0-2.46-.25c.08.27.19.66.33,1.19a8.67,8.67,0,0,1,.26,1.06,1.6,1.6,0,0,1-.28,1.19,1.42,1.42,0,0,1-1,.57,1.36,1.36,0,0,1-1.15-.24,4.06,4.06,0,0,1-.61-2c-.1-.65-.24-1.42-.39-2.29s-.28-1.65-.41-2.29-.2-.87-.22-1,0-.32-.06-.49a2.4,2.4,0,0,1,.09-1.17.92.92,0,0,1,.79-.54,1.38,1.38,0,0,1,1,.15,1.54,1.54,0,0,1,.51.86c.05.2.09.47.15.77s.15.86.29,1.67a13.53,13.53,0,0,0,1.9-1.63A6.58,6.58,0,0,0,279.46,71.35Z"/><path class="cls-2" d="M285.56,70.25l.61,1.19a5,5,0,0,0,.44.75,9.3,9.3,0,0,0,.68.84c.12-.6.23-1.17.34-1.73s.22-1,.31-1.4l.25-1.06a.82.82,0,0,1,.53-.59,1.12,1.12,0,0,1,.88,0,.69.69,0,0,1,.42.31,1.31,1.31,0,0,1,.09.68c-.11,1.35-.17,2-.29,3.37a47.09,47.09,0,0,1-1,6A56.1,56.1,0,0,1,287,85l-.4,1.1a1.83,1.83,0,0,1-.37.68.87.87,0,0,1-.43.21,1,1,0,0,1-.78-.15.88.88,0,0,1-.4-.65,11.78,11.78,0,0,1,.59-2.66,47.92,47.92,0,0,0,1.17-5.36l.3-1.86a15.63,15.63,0,0,1-2.38-2.57,6.62,6.62,0,0,1-1.4-2.54,1.48,1.48,0,0,1,.26-1.12,1.32,1.32,0,0,1,.9-.59,1.2,1.2,0,0,1,.84.16A1.47,1.47,0,0,1,285.56,70.25Z"/></svg>