<svg id="svg45394" xmlns="http://www.w3.org/2000/svg" xmlns:xlink="http://www.w3.org/1999/xlink" viewBox="0 0 38.81 39.12"><defs><style>.cls-1{fill:url(#Безымянный_градиент_3);}.cls-2{fill:#fff;}</style><radialGradient id="Безымянный_градиент_3" cx="-269.71" cy="215.28" r="18.86" gradientTransform="matrix(-0.53, 0.97, 0.98, 0.54, -336.78, 156.07)" gradientUnits="userSpaceOnUse"><stop offset="0" stop-color="#ff5252"/><stop offset="1" stop-color="#d60000"/></radialGradient></defs><path id="path8654" class="cls-1" d="M38.26,19.56A18.86,18.86,0,1,1,19.4.7,18.85,18.85,0,0,1,38.26,19.56Z"/><path id="path8849" class="cls-2" d="M12.07,5.41a.89.89,0,0,0-.61.28,7.15,7.15,0,0,0-.35,8.68,9.54,9.54,0,0,0-4.49.75A8.91,8.91,0,0,0,1.77,21a.89.89,0,0,0,.61,1.08.87.87,0,0,0,.48,0c1.68-.48,2.75-.17,4.53-.08a17,17,0,0,0,7.84-1.69.9.9,0,0,0,.49-.54,8.89,8.89,0,0,1,3.6-4.58,5.89,5.89,0,0,1,5.7-.59,10.07,10.07,0,0,1,4.09,3A44.57,44.57,0,0,1,32.66,23c.69,1.15.71,1.88.41,2.47a4,4,0,0,1-2.42,1.64c-2.67.87-7.26,1-12.63.15a3,3,0,0,1-2.27-1.75,2,2,0,0,1-.16-1.08.69.69,0,0,1,.33-.55.76.76,0,0,0,.21-.19A12.87,12.87,0,0,1,20,21.07a5.79,5.79,0,0,1,2.44-.49,2.08,2.08,0,0,1,1.68,1v0c.33.43.32.62.29.74a.93.93,0,0,1-.46.49,6.12,6.12,0,0,1-2.74.67.88.88,0,1,0,0,1.75h0a7.1,7.1,0,0,0,3.67-.94,2.59,2.59,0,0,0,1.23-1.56,2.71,2.71,0,0,0-.58-2.19,4,4,0,0,0-3-1.67,7.14,7.14,0,0,0-3.24.61A12.5,12.5,0,0,0,15,22.37a2.51,2.51,0,0,0-1.13,1.74,3.7,3.7,0,0,0,.28,2A4.69,4.69,0,0,0,17.75,29c5.54.86,10.28.81,13.44-.22a5.54,5.54,0,0,0,3.44-2.51,4.28,4.28,0,0,0-.47-4.16,45.68,45.68,0,0,0-3.71-5.66A12.08,12.08,0,0,0,25.71,13a7.76,7.76,0,0,0-7.32.72,10.4,10.4,0,0,0-4.09,5.07,14.8,14.8,0,0,1-6.82,1.47,30.87,30.87,0,0,0-3.36-.06,7,7,0,0,1,3.24-3.46,8,8,0,0,1,5.37-.45.87.87,0,0,0,1.08-.6.9.9,0,0,0-.25-.89A5.78,5.78,0,0,1,12.27,7.7a9.11,9.11,0,0,1,1.5,1.54,4.13,4.13,0,0,1,.84,2.81.88.88,0,0,0,1.59.59,11.92,11.92,0,0,1,2-2.42,3.54,3.54,0,0,1,2.46-.65.87.87,0,1,0,0-1.74h0a5.49,5.49,0,0,0-3.55,1,7.57,7.57,0,0,0-1,1.19,6.74,6.74,0,0,0-.89-1.78A12.06,12.06,0,0,0,12.64,5.6a.84.84,0,0,0-.57-.19Z"/></svg>