<svg id="Слой_1" data-name="Слой 1" xmlns="http://www.w3.org/2000/svg" viewBox="0 0 74.04 32.17"><path d="M18.18,25.68a2.17,2.17,0,0,1-.5,1.4,1.62,1.62,0,0,1-1.4.5,2,2,0,0,1-1.4-.5,2.21,2.21,0,0,1,0-2.8,1.62,1.62,0,0,1,1.4-.5,1.74,1.74,0,0,1,1.9,1.9Z"/><path d="M26.38,26.08a4,4,0,0,0,2.5-.6,1.8,1.8,0,0,0,.7-1.5,1.9,1.9,0,0,0-.8-1.5,12,12,0,0,0-2-1.1l-1.6-.7a8.61,8.61,0,0,1-3-1.9,3.63,3.63,0,0,1-1.1-2.6,3.42,3.42,0,0,1,.4-1.8,3.74,3.74,0,0,1,1.2-1.3,5.45,5.45,0,0,1,1.9-.8A8.75,8.75,0,0,1,27,12a13.88,13.88,0,0,1,3.2.3,4.21,4.21,0,0,1,1.9.9,2.63,2.63,0,0,1,.7,1.5,15.48,15.48,0,0,1,.1,2.2h-1.1a5.68,5.68,0,0,0-1.2-2.6,3.84,3.84,0,0,0-2.9-1.1,3.28,3.28,0,0,0-2.1.6,2,2,0,0,0-.6,1.5,1.82,1.82,0,0,0,.6,1.4,7.42,7.42,0,0,0,1.6,1l1.9.8a11,11,0,0,1,3.3,1.9,3.69,3.69,0,0,1,1.1,2.7,3.45,3.45,0,0,1-.5,1.8,4,4,0,0,1-1.3,1.3,6,6,0,0,1-2,.8,10.9,10.9,0,0,1-2.6.3,13.88,13.88,0,0,1-3.2-.3,4.21,4.21,0,0,1-1.9-.9,2.63,2.63,0,0,1-.7-1.5,15.48,15.48,0,0,1-.1-2.2h1.1a5.68,5.68,0,0,0,1.2,2.6A3.69,3.69,0,0,0,26.38,26.08Z"/><path d="M37.08,16.38a5.27,5.27,0,0,0-.4-2.3,1.81,1.81,0,0,0-1.8-.9h-.3v-.9h3.8a5.9,5.9,0,0,1,1.4.2,1.6,1.6,0,0,1,.9.7,3.2,3.2,0,0,1,.5,1.3,11.52,11.52,0,0,1,.1,2v10.7h-4.1V16.38Zm3.8-7.5a1.9,1.9,0,0,1-.5,1.3,1.66,1.66,0,0,1-1.2.5,2.14,2.14,0,0,1-1.8-.7,2.52,2.52,0,0,1-.6-1.7,1.9,1.9,0,0,1,.5-1.3,1.66,1.66,0,0,1,1.2-.5,2.14,2.14,0,0,1,1.8.7A2.52,2.52,0,0,1,40.88,8.88Z"/><path d="M49.68,12.28h3.5v1.4h-3.5V23a4.47,4.47,0,0,0,.4,2.4,1.43,1.43,0,0,0,1.2.6,3.4,3.4,0,0,0,1-.1,6.89,6.89,0,0,0,.8-.3,4.35,4.35,0,0,0,.7-.4l.4.9a3.59,3.59,0,0,1-1,.7,8.93,8.93,0,0,1-1.3.5,9,9,0,0,1-1.8.2,4.7,4.7,0,0,1-3.4-1.2,4.55,4.55,0,0,1-1.2-3.4v-9.2h-1.9v-1.4h1.9V9.48l1.6-1.9h2.5v4.7Z"/><path d="M63.08,26.08a4.55,4.55,0,0,0,2.7-.8,6.56,6.56,0,0,0,1.8-1.9l1,.7a7.63,7.63,0,0,1-.8,1.1,6.53,6.53,0,0,1-1.2,1.1,6.71,6.71,0,0,1-1.7.8,7.55,7.55,0,0,1-2.3.3,7.31,7.31,0,0,1-3-.6,6.34,6.34,0,0,1-2.3-1.6,9.74,9.74,0,0,1-1.5-2.4,10.07,10.07,0,0,1-.5-3.1,10.42,10.42,0,0,1,.5-3.3,5.45,5.45,0,0,1,1.5-2.4,8.55,8.55,0,0,1,2.2-1.5,8.08,8.08,0,0,1,2.7-.5,7.63,7.63,0,0,1,2.7.5,6.11,6.11,0,0,1,2.2,1.3,6.18,6.18,0,0,1,1.5,2,5.5,5.5,0,0,1,.5,2.6v1.3a1.27,1.27,0,0,1-.1.6h-9.5c0,2.1.3,3.6,1,4.4A3.28,3.28,0,0,0,63.08,26.08Zm1.9-7.2a17.19,17.19,0,0,0-.2-2.6,3.78,3.78,0,0,0-.6-1.7,2.36,2.36,0,0,0-.8-.9,2,2,0,0,0-1.1-.3,1.69,1.69,0,0,0-1,.3,3.82,3.82,0,0,0-.9.9,10.72,10.72,0,0,0-.6,1.7,18.36,18.36,0,0,0-.2,2.6Z"/></svg>