<?xml version="1.0" encoding="utf-8"?>
<!-- Generator: Adobe Illustrator 25.2.1, SVG Export Plug-In . SVG Version: 6.00 Build 0)  -->
<svg version="1.1" id="Слой_1" xmlns="http://www.w3.org/2000/svg" xmlns:xlink="http://www.w3.org/1999/xlink" x="0px" y="0px"
	 viewBox="0 0 187.4 100.6" style="enable-background:new 0 0 187.4 100.6;" xml:space="preserve">
<style type="text/css">
	.st0{fill:#FFFFFF;}
</style>
<path class="st0" d="M21.4,33.5c-0.9-2.5-2.3-4.7-4-6.7c-1.2-1.2-2.8-2-4.5-2.3v-1.7c0.6,0,1.1,0,1.7-0.1c0.6-0.1,1.3-0.1,1.9-0.1
	c1.5,0,3.1,0.1,4.6,0.3c3.4,0.5,6.5,2.1,8.8,4.7c1.5,1.7,2.7,3.7,3.5,5.8l13.5,31.9c0,0,4.2-20.3,6.1-26.9
	c1.7-6.1,8.2-23.9,8.2-23.9l23.5,10.1c0,0-15.6,5.1-19.9,8.4c-11.1,8.3-15,34.4-16.5,44.7c-1,6.3,0.5,12.7,4.2,17.8
	c0,0-4-4.2-5.7-6.2c-1-1.2-5.1-6.8-5.1-6.8L21.4,33.5z"/>
<path class="st0" d="M66,61.5c0.1-1.5-0.2-3-0.8-4.4c-0.5-1.1-1.7-1.7-3.5-1.7h-0.6v-1.8h7.4c0.9,0,1.8,0.1,2.7,0.4
	c0.7,0.3,1.3,0.7,1.7,1.3c0.5,0.7,0.8,1.5,0.9,2.4c0.2,1.3,0.3,2.5,0.2,3.8v20.8h-8V61.5z M73.4,46.8c0,0.9-0.3,1.8-1,2.5
	c-0.7,0.6-1.5,0.9-2.4,0.9c-1.3,0.1-2.6-0.4-3.4-1.4c-0.8-0.9-1.2-2-1.1-3.2c0-0.9,0.3-1.8,1-2.5c0.7-0.6,1.5-0.9,2.4-0.9
	c1.3-0.1,2.6,0.4,3.5,1.4C73,44.6,73.4,45.7,73.4,46.8L73.4,46.8z"/>
<path class="st0" d="M93.6,55.6c-2.2,0-4.2,1.1-5.3,3c-1.4,2-2.1,5.1-2.1,9.2c0,8.2,2.6,12.2,7.7,12.2c1.9,0.1,3.7-0.4,5.2-1.5
	c1.4-1,2.6-2.2,3.6-3.6l1.9,1.4c-0.5,0.8-1,1.5-1.6,2.2c-0.7,0.8-1.5,1.5-2.4,2.1c-1,0.7-2.1,1.2-3.3,1.6c-1.5,0.4-3,0.6-4.6,0.6
	c-2.2,0-4.4-0.4-6.4-1.2c-1.7-0.7-3.3-1.8-4.6-3.2c-1.2-1.4-2.2-3-2.8-4.8c-1.2-3.8-1.2-7.8,0-11.6c0.6-1.8,1.5-3.4,2.8-4.8
	c1.3-1.4,2.8-2.5,4.6-3.2c2-0.8,4.2-1.2,6.4-1.2c2,0,4,0.1,5.9,0.5c1.3,0.2,2.6,0.8,3.6,1.7c0.8,0.8,1.3,1.9,1.3,3.1
	c0.1,1.3,0.2,3.1,0.2,5.4h-1.8c0-2.2-0.9-4.3-2.4-5.9C97.8,56.3,95.7,55.6,93.6,55.6z"/>
<path class="st0" d="M117.3,53.5h6.7v2.8h-6.7v18c-0.1,1.6,0.1,3.2,0.8,4.6c0.5,0.8,1.4,1.2,2.4,1.2c0.6,0,1.3-0.1,1.9-0.2
	c0.6-0.1,1.1-0.3,1.6-0.6c0.5-0.2,1-0.5,1.4-0.9l0.9,1.7c-0.6,0.5-1.2,1-1.9,1.3c-0.8,0.4-1.6,0.7-2.5,0.9c-1.2,0.3-2.4,0.5-3.6,0.4
	c-2.4,0.1-4.7-0.7-6.5-2.3c-1.6-1.5-2.4-3.7-2.4-6.7V56.3h-3.7v-2.8h3.7V48l3.1-3.7h4.9v9.2L117.3,53.5z"/>
<path class="st0" d="M126.5,67.9c0-2,0.3-4,1-5.9c1.3-3.6,4-6.5,7.5-8c3.9-1.6,8.4-1.6,12.3,0c3.5,1.5,6.2,4.4,7.5,8
	c1.3,3.8,1.3,8,0,11.8c-1.3,3.6-4,6.5-7.5,8c-4,1.5-8.3,1.5-12.3,0c-3.5-1.5-6.2-4.4-7.5-8C126.8,71.9,126.5,69.9,126.5,67.9z
	 M147.6,67.9c0-1.6-0.1-3.3-0.4-4.9c-0.2-1.4-0.6-2.7-1.2-3.9c-0.4-1-1.1-1.9-2-2.6c-1.7-1.2-3.9-1.2-5.6,0c-0.9,0.7-1.6,1.6-2,2.6
	c-0.6,1.2-1,2.5-1.2,3.9c-0.5,3.2-0.5,6.5,0,9.7c0.2,1.3,0.6,2.7,1.2,3.9c0.4,1,1.1,1.9,2,2.6c1.7,1.2,3.9,1.2,5.6,0
	c0.9-0.7,1.6-1.6,2-2.6c0.6-1.2,1-2.5,1.2-3.9C147.5,71.1,147.6,69.5,147.6,67.9z"/>
<path class="st0" d="M175.3,52.9c1.5-0.1,3,0.4,4.3,1.2c0.4,0.2,0.7,0.5,0.9,0.9c0.4,0.6,0.8,1.2,1.1,1.9l-3.1,2.4
	c-0.3-0.4-0.7-0.8-1.1-1.2c-0.4-0.3-0.9-0.6-1.3-0.9c-0.6-0.3-1.2-0.4-1.8-0.4c-1.1,0-2.2,0.2-3.3,0.6c-0.8,0.3-1.5,0.8-2.1,1.3
	c0,0.3,0.1,0.6,0.1,0.9s0.1,0.6,0.1,1v21.7h-8V61.5c0-0.8,0-1.7-0.1-2.5c-0.1-0.7-0.3-1.4-0.6-2c-0.3-0.5-0.8-1-1.3-1.3
	c-0.7-0.3-1.4-0.5-2.2-0.4h-0.6v-1.8h6.1c1.1,0,2.2,0.1,3.3,0.5c0.8,0.3,1.5,0.9,1.9,1.7c0.9-0.8,1.9-1.4,3-1.9
	C172.1,53.1,173.7,52.8,175.3,52.9z"/>
</svg>
