<svg xmlns="http://www.w3.org/2000/svg" xmlns:xlink="http://www.w3.org/1999/xlink" viewBox="0 0 70 70"><defs><style>.cls-1{fill:none;}.cls-2{fill:#b3b2f8;}.cls-3{clip-path:url(#clip-path);}.cls-4{fill:#e5e5ff;}.cls-5{fill:#4e54de;}.cls-6{fill:#1f1a68;}.cls-7{fill:#908bef;}.cls-8{fill:#ffa900;}</style><clipPath id="clip-path"><circle class="cls-1" cx="35" cy="35" r="33.35"/></clipPath></defs><g id="OBJECTS"><circle class="cls-2" cx="35" cy="35" r="33.35"/><g class="cls-3"><path class="cls-4" d="M9.32,41.06a26.07,26.07,0,0,0,5.33,12.35c5,6.18,14.34,10.31,21.78,5.9A16,16,0,0,0,43,50.75a22.7,22.7,0,0,0-5.24-23.16C31,20.8,17.16,17.33,11.2,27.14A18.43,18.43,0,0,0,9,37.4,30,30,0,0,0,9.32,41.06Z"/><path class="cls-5" d="M32.2,4.51a7.6,7.6,0,0,0-1.8,2,2.51,2.51,0,0,0,0,2.59c.86,1.17,2.64.94,4,.6A42.75,42.75,0,0,0,30.2,23.62a7.83,7.83,0,0,0,0,2.73,3.06,3.06,0,0,0,1.56,2.15A3.15,3.15,0,0,0,35,27.91a9.37,9.37,0,0,0,2-2.73,20.86,20.86,0,0,0,2.62,13.29,3.18,3.18,0,0,0,1.93,1.76,2.29,2.29,0,0,0,2.16-1,5.75,5.75,0,0,0,.86-2.33,24.06,24.06,0,0,0-.9-12.45,9.16,9.16,0,0,0,.94,3.39,3.11,3.11,0,0,0,2.91,1.66,2.83,2.83,0,0,0,2-1.55,5.56,5.56,0,0,0,.56-2.58,11.08,11.08,0,0,0-2.44-7.07c1.18.83,2.69,1.68,4,1s1.44-2.24,1.38-3.6A18.38,18.38,0,0,0,48.48,4.5,17.3,17.3,0,0,0,40.14-.83C38.6-1.21,38-.58,36.84.41Z"/><path class="cls-6" d="M74.25,27c-4.61-3.92-12-.76-16.34,2.14a18.7,18.7,0,0,0-7.42,9.36,17.32,17.32,0,0,0,3.39,16.64,13.55,13.55,0,0,0,11.59,4.13,16.39,16.39,0,0,0,10.72-6.33,19.15,19.15,0,0,0,3.9-12.16,21.07,21.07,0,0,0-4.3-12.06"/><path class="cls-7" d="M46.68,74.73l-1-.34a18.5,18.5,0,0,0-5.09-19.12,36.82,36.82,0,0,0-6.91-4.51c-1.37-.75-2.78-1.53-4.12-2.4-2.7-1.75-7.28-5.47-7.54-10.73a18.49,18.49,0,0,1,1.08-6.08c.67-2.27,1.31-4.42.91-6.59-.66-3.58-4.07-6.13-7-7.95A89.73,89.73,0,0,0-6.91,6.46l.29-1.06A91,91,0,0,1,17.59,16.08c3.08,1.94,6.72,4.68,7.46,8.68.45,2.43-.26,4.8-.94,7.1a17.52,17.52,0,0,0-1,5.71c.23,4.77,4.51,8.23,7,9.87,1.3.85,2.7,1.62,4.05,2.36a37.81,37.81,0,0,1,7.11,4.65A19.62,19.62,0,0,1,46.68,74.73Z"/><path class="cls-8" d="M12,28a4,4,0,0,0,1.19,1.52A2,2,0,0,0,15,29.8a2.64,2.64,0,0,0,1.31-2,7.56,7.56,0,0,0-.73-5c-.68-1.25-3-3-3.83-1A7.74,7.74,0,0,0,12,28Z"/><path class="cls-8" d="M5.47,30.45A1.17,1.17,0,0,0,5.7,31.6a.83.83,0,0,0,.82.11c1.29-.46,2.41-2.79,1.45-3.95C6.74,26.26,5.63,29.58,5.47,30.45Z"/><path class="cls-8" d="M13,38.79a2.23,2.23,0,0,0,.69.86,1.1,1.1,0,0,0,1,.15,1.46,1.46,0,0,0,.71-.88c.52-1.37.31-4.63-1.55-5C11.77,33.45,12.51,37.82,13,38.79Z"/><path class="cls-8" d="M18.51,28.07c.09.38.32.82.72.83s.62-.34.75-.68c.25-.65.36-2.73-.63-2.9C18.13,25.12,18.37,27.47,18.51,28.07Z"/><path class="cls-8" d="M8.34,47.14a2.9,2.9,0,0,0,.32,1.33,1.33,1.33,0,0,0,1.12.7c.67,0,1.12-.68,1.4-1.28a9.75,9.75,0,0,0,.9-3.64c.07-1.4-.94-3.68-2.37-1.9A7.4,7.4,0,0,0,8.34,47.14Z"/></g></g></svg>