<svg id="Слой_1" data-name="Слой 1" xmlns="http://www.w3.org/2000/svg" viewBox="0 0 203.74 109.28"><defs><style>.cls-1{fill:#4d4d4d;}</style></defs><path class="cls-1" d="M11.8,49.75h8a107.12,107.12,0,0,1,13-40.4C24.2,14.85,11.5,40,11.8,49.75Z"/><path class="cls-1" d="M10.9,55.25h8.9v36.3a10.84,10.84,0,0,0,.9,5c.6,1.3,1.9,1.9,3.9,1.9h.7v2.1H17.1a10.32,10.32,0,0,1-3-.4,4,4,0,0,1-1.9-1.4,6.82,6.82,0,0,1-1-2.7,31.08,31.08,0,0,1-.3-4.3Z"/><path class="cls-1" d="M28.2,78.05a24.31,24.31,0,0,0-2.9-4.9,4,4,0,0,0-2.8-1.6v-1.3l1.1-.1c.6,0,1-.1,1.3-.1a21.86,21.86,0,0,1,3.6.3,9.58,9.58,0,0,1,3.2,1.2A9.55,9.55,0,0,1,34.6,74a20.65,20.65,0,0,1,2.5,4l5.5,12.2,8.6-19.4h3.4l-13.5,30.4H38.8Z"/><path class="cls-1" d="M68.3,70.05q6.15,0,9.6,3.3c2.3,2.2,3.4,5.5,3.4,10v17.1H75.9l-2.3-2.8h-.3a7.69,7.69,0,0,1-1.8,1.8,10.08,10.08,0,0,1-2.3,1.2,10.24,10.24,0,0,1-3.5.5c-3.5,0-6.2-.8-8-2.4a8,8,0,0,1-2.8-6.2,9.24,9.24,0,0,1,.8-4,7.1,7.1,0,0,1,2.7-3,16.08,16.08,0,0,1,5.2-1.8,39.61,39.61,0,0,1,8.4-.6h1c0-3.8-.5-6.4-1.6-7.9a5.19,5.19,0,0,0-4.4-2.2,14.92,14.92,0,0,0-2.1.2,4.94,4.94,0,0,0-1.8.8,6.12,6.12,0,0,0-1.5,1.7,10,10,0,0,0-1,2.9H57.1c0-1.1.1-2.2.2-3.4a4.94,4.94,0,0,1,1.4-3,6,6,0,0,1,3.8-1.7A36.79,36.79,0,0,1,68.3,70.05ZM73,86H72c-3,0-5.2.6-6.6,1.7a7.78,7.78,0,0,0-.9,9.2,3.75,3.75,0,0,0,3,1.4,4.75,4.75,0,0,0,2.4-.6,11.51,11.51,0,0,0,1.7-1.4,7.43,7.43,0,0,0,1.3-2.1Z"/><path class="cls-1" d="M101.4,73.15a10.3,10.3,0,0,0-3.5.6,5.94,5.94,0,0,0-2.3,1.4,3.71,3.71,0,0,0,.2.9,4.25,4.25,0,0,1,.2,1.1,6.6,6.6,0,0,1,.1,1.4v22H87.9V79a22.6,22.6,0,0,0-.1-2.6,6.64,6.64,0,0,0-.6-2,3.25,3.25,0,0,0-1.3-1.3,4.49,4.49,0,0,0-2.3-.4H83v-1.9h6.3a9.67,9.67,0,0,1,3.4.5,4.14,4.14,0,0,1,1.9,1.8,7.1,7.1,0,0,1,1.4-1,11.4,11.4,0,0,1,1.9-1,19.73,19.73,0,0,1,2.6-.7,19.53,19.53,0,0,1,3.4-.3c4,0,7,.9,9,2.8s3,4.8,3,8.9v18.8h-8.2v-19c0-3.1-.6-5.3-1.7-6.6A7,7,0,0,0,101.4,73.15Z"/><path class="cls-1" d="M135.1,98.25a9.4,9.4,0,0,0,5.4-1.5,18.53,18.53,0,0,0,3.7-3.7l2,1.5a19.52,19.52,0,0,1-1.7,2.3,17,17,0,0,1-2.4,2.2,13.26,13.26,0,0,1-3.4,1.6,14,14,0,0,1-4.5.6,15.31,15.31,0,0,1-6-1.2,13.18,13.18,0,0,1-4.6-3.2,14.83,14.83,0,0,1-3-5,20.34,20.34,0,0,1,.1-12.9,13.16,13.16,0,0,1,2.9-4.8,10.93,10.93,0,0,1,4.4-2.9,14.87,14.87,0,0,1,5.5-1,17.13,17.13,0,0,1,5.5.9,13.14,13.14,0,0,1,4.4,2.6,11.71,11.71,0,0,1,3,4,13.1,13.1,0,0,1,1.1,5.2v1.4a5.28,5.28,0,0,1-.1,1.3,5.7,5.7,0,0,0-.1,1.3H128.2c0,4.2.6,7.1,1.9,8.9A5.94,5.94,0,0,0,135.1,98.25ZM138.9,84a29.61,29.61,0,0,0-.4-5.2,13.52,13.52,0,0,0-1.1-3.4,4.24,4.24,0,0,0-1.7-1.8,4.66,4.66,0,0,0-4.2,0,4.9,4.9,0,0,0-1.7,1.8,9.85,9.85,0,0,0-1.2,3.4,22.81,22.81,0,0,0-.4,5.2Z"/><path class="cls-1" d="M161,70.75h7v2.8h-7v18.7q0,3.6.9,4.8a2.62,2.62,0,0,0,2.4,1.2,11.08,11.08,0,0,0,1.9-.2,4.42,4.42,0,0,0,1.6-.6l1.5-.9.9,1.8a14.29,14.29,0,0,1-2,1.4,20,20,0,0,1-2.6,1,11.68,11.68,0,0,1-3.7.4,9.87,9.87,0,0,1-6.8-2.3q-2.4-2.4-2.4-6.9V73.55h-3.8v-2.8h3.8v-5.7l3.2-3.8H161Z"/><path class="cls-1" d="M181.5,98.25c2.4,0,4-.4,4.9-1.2a4.1,4.1,0,0,0,1.4-3.1,3.36,3.36,0,0,0-1.6-2.9,31.13,31.13,0,0,0-4-2.2l-3.3-1.4a20.71,20.71,0,0,1-6-3.7,6.79,6.79,0,0,1-2.1-5.2,7.4,7.4,0,0,1,.9-3.6,7,7,0,0,1,2.5-2.6,11.43,11.43,0,0,1,3.8-1.6,19.59,19.59,0,0,1,4.8-.5,22.86,22.86,0,0,1,6.4.7,9.09,9.09,0,0,1,3.8,1.9,4.39,4.39,0,0,1,1.3,3.1c.1,1.3.2,2.8.2,4.4h-2.2a9.74,9.74,0,0,0-2.5-5.2,7.25,7.25,0,0,0-5.8-2.1,5.87,5.87,0,0,0-4.1,1.2,4.39,4.39,0,0,0-1.3,3.1,3.63,3.63,0,0,0,1.2,2.8,10.91,10.91,0,0,0,3.3,1.9l3.8,1.6a24.13,24.13,0,0,1,6.6,3.8,7,7,0,0,1,2.3,5.4,6.53,6.53,0,0,1-1,3.6,7.46,7.46,0,0,1-2.7,2.6,12.09,12.09,0,0,1-4.1,1.6,18.37,18.37,0,0,1-5.2.5,22.86,22.86,0,0,1-6.4-.7,9.09,9.09,0,0,1-3.8-1.9,4.39,4.39,0,0,1-1.3-3.1c-.1-1.3-.2-2.8-.2-4.4h2.2a10.53,10.53,0,0,0,2.5,5.2A7.44,7.44,0,0,0,181.5,98.25Z"/></svg>