<?xml version="1.0" encoding="utf-8"?>
<!-- Generator: Adobe Illustrator 25.2.1, SVG Export Plug-In . SVG Version: 6.00 Build 0)  -->
<svg version="1.1" id="Слой_1" xmlns="http://www.w3.org/2000/svg" xmlns:xlink="http://www.w3.org/1999/xlink" x="0px" y="0px"
	 viewBox="0 0 74 32.2" style="enable-background:new 0 0 74 32.2;" xml:space="preserve">
<style type="text/css">
	.st0{fill:#2A393D;}
</style>
<path class="st0" d="M18.2,25.7c0,0.5-0.2,1-0.5,1.4c-0.4,0.4-0.9,0.6-1.4,0.5c-0.5,0-1-0.2-1.4-0.5c-0.7-0.8-0.7-2,0-2.8
	c0.4-0.4,0.9-0.6,1.4-0.5c1-0.1,1.8,0.6,1.9,1.6C18.2,25.5,18.2,25.6,18.2,25.7z"/>
<path class="st0" d="M26.4,26.1c0.9,0.1,1.8-0.1,2.5-0.6c0.5-0.4,0.7-0.9,0.7-1.5c0-0.6-0.3-1.2-0.8-1.5c-0.6-0.4-1.3-0.8-2-1.1
	l-1.6-0.7c-1.1-0.4-2.1-1.1-3-1.9c-0.7-0.7-1.1-1.6-1.1-2.6c0-0.6,0.1-1.2,0.4-1.8c0.3-0.5,0.7-1,1.2-1.3c0.6-0.4,1.2-0.7,1.9-0.8
	c0.8-0.2,1.6-0.3,2.4-0.3c1.1,0,2.1,0.1,3.2,0.3c0.7,0.1,1.4,0.4,1.9,0.9c0.4,0.4,0.6,0.9,0.7,1.5c0.1,0.7,0.1,1.5,0.1,2.2h-1.1
	c-0.2-1-0.6-1.9-1.2-2.6c-0.8-0.8-1.8-1.2-2.9-1.1c-0.7,0-1.5,0.2-2.1,0.6c-0.4,0.4-0.6,0.9-0.6,1.5c0,0.5,0.2,1,0.6,1.4
	c0.5,0.4,1,0.7,1.6,1l1.9,0.8c1.2,0.4,2.3,1.1,3.3,1.9c0.7,0.7,1.1,1.7,1.1,2.7c0,0.6-0.2,1.3-0.5,1.8c-0.3,0.5-0.8,1-1.3,1.3
	c-0.6,0.4-1.3,0.7-2,0.8c-0.9,0.2-1.7,0.3-2.6,0.3c-1.1,0-2.1-0.1-3.2-0.3c-0.7-0.1-1.4-0.4-1.9-0.9c-0.4-0.4-0.6-0.9-0.7-1.5
	c-0.1-0.7-0.1-1.5-0.1-2.2h1.1c0.2,1,0.6,1.9,1.2,2.6C24.3,25.8,25.3,26.2,26.4,26.1z"/>
<path class="st0" d="M37.1,16.4c0-0.8-0.1-1.6-0.4-2.3c-0.4-0.6-1.1-1-1.8-0.9h-0.3v-0.9h3.8c0.5,0,0.9,0.1,1.4,0.2
	c0.4,0.1,0.7,0.4,0.9,0.7c0.3,0.4,0.4,0.8,0.5,1.3c0.1,0.7,0.1,1.3,0.1,2v10.7h-4.1V16.4H37.1z M40.9,8.9c0,0.5-0.2,0.9-0.5,1.3
	c-0.3,0.3-0.7,0.5-1.2,0.5c-0.7,0.1-1.3-0.2-1.8-0.7c-0.4-0.5-0.6-1.1-0.6-1.7c0-0.5,0.2-0.9,0.5-1.3c0.3-0.3,0.7-0.5,1.2-0.5
	c0.7-0.1,1.3,0.2,1.8,0.7C40.7,7.7,40.9,8.3,40.9,8.9z"/>
<path class="st0" d="M49.7,12.3h3.5v1.4h-3.5V23c-0.1,0.8,0,1.7,0.4,2.4c0.3,0.4,0.7,0.6,1.2,0.6c0.3,0,0.7,0,1-0.1
	c0.3-0.1,0.5-0.2,0.8-0.3c0.2-0.1,0.5-0.2,0.7-0.4l0.4,0.9c-0.3,0.3-0.6,0.5-1,0.7c-0.4,0.2-0.9,0.4-1.3,0.5
	c-0.6,0.1-1.2,0.2-1.8,0.2c-1.2,0.1-2.5-0.4-3.4-1.2c-0.9-0.9-1.3-2.1-1.2-3.4v-9.2h-1.9v-1.4h1.9V9.5l1.6-1.9h2.5L49.7,12.3
	L49.7,12.3z"/>
<path class="st0" d="M63.1,26.1c1,0,1.9-0.3,2.7-0.8c0.7-0.5,1.3-1.2,1.8-1.9l1,0.7c-0.2,0.4-0.5,0.8-0.8,1.1
	c-0.4,0.4-0.8,0.8-1.2,1.1c-0.5,0.3-1.1,0.6-1.7,0.8c-0.7,0.2-1.5,0.3-2.3,0.3c-1,0-2.1-0.2-3-0.6c-0.9-0.4-1.7-0.9-2.3-1.6
	c-0.6-0.7-1.1-1.5-1.5-2.4c-0.3-1-0.5-2-0.5-3.1c0-1.1,0.2-2.2,0.5-3.3c0.3-0.9,0.8-1.7,1.5-2.4c0.7-0.6,1.4-1.1,2.2-1.5
	c0.9-0.3,1.8-0.5,2.7-0.5c0.9,0,1.8,0.2,2.7,0.5c0.8,0.3,1.6,0.7,2.2,1.3c0.6,0.6,1.1,1.2,1.5,2c0.4,0.8,0.5,1.7,0.5,2.6v1.3
	c0,0.2,0,0.4-0.1,0.6h-9.5c0,2.1,0.3,3.6,1,4.4C61.1,25.5,62,26.1,63.1,26.1z M65,18.9c0-0.9-0.1-1.7-0.2-2.6
	c-0.1-0.6-0.3-1.2-0.6-1.7c-0.2-0.4-0.5-0.7-0.8-0.9c-0.3-0.2-0.7-0.3-1.1-0.3c-0.4,0-0.7,0.1-1,0.3c-0.3,0.2-0.7,0.6-0.9,0.9
	c-0.2,0.5-0.4,1.1-0.6,1.7c-0.1,0.9-0.2,1.7-0.2,2.6H65z"/>
</svg>
