<svg xmlns="http://www.w3.org/2000/svg" xmlns:xlink="http://www.w3.org/1999/xlink" viewBox="0 0 70 70"><defs><style>.cls-1{fill:none;}.cls-2{fill:#b3b2f8;}.cls-3{clip-path:url(#clip-path);}.cls-4{fill:#e5e5ff;}.cls-5{fill:#ffa900;}.cls-6{fill:#4e54de;}.cls-7{fill:#1f1a68;}</style><clipPath id="clip-path"><circle class="cls-1" cx="35" cy="35" r="33.35"/></clipPath></defs><g id="OBJECTS"><circle class="cls-2" cx="35" cy="35" r="33.35"/><g class="cls-3"><path class="cls-4" d="M9.15,30.8a13,13,0,0,0,1.71,6.68A7.23,7.23,0,0,0,16.54,41c2.24.06,4.78-1.08,6.54.3,1.32,1,1.43,3,2.27,4.45,1.33,2.3,4.53,3.07,7,2.12a9.36,9.36,0,0,0,5.15-5.76,25.32,25.32,0,0,0,1.1-7.86c.06-2.38.25-5.11,2.17-6.53,1.77-1.32,4.26-.91,6.37-1.58,3.15-1,5.09-4.52,4.79-7.8a10.77,10.77,0,0,0-5.36-7.89c-6.69-4-16-3.26-23-.23C15.33,13.82,9,21.54,9.15,30.8Z"/><path class="cls-5" d="M37,58.12a6.39,6.39,0,0,1-.08-3.1,2.48,2.48,0,0,1,2.22-1.89c1.35,0,2.22,1.45,2.63,2.75s.71,2.78,1.84,3.53a25.78,25.78,0,0,1-1.14-14,6,6,0,0,1,1.19-2.9,2.47,2.47,0,0,1,2.85-.74c1,.53,1.3,1.84,1.47,3,.4,2.71.79,5.42,1.19,8.13a22.21,22.21,0,0,1,1.51-12.47A5.66,5.66,0,0,1,52.38,38a2.3,2.3,0,0,1,2.83,0A3.48,3.48,0,0,1,56,40.4l.35,7c.22-2.36.49-4.86,1.94-6.74s4.51-2.71,6.2-1a5.75,5.75,0,0,1,1.35,3.26A29,29,0,0,1,50.34,73.41c-1.9,1-4,2.37-5.82.68s-3.28-4.6-4.42-6.9A37.66,37.66,0,0,1,37,58.12Z"/><path class="cls-6" d="M39.94,32.93A13.79,13.79,0,0,0,45.88,36c1.33.4,2.88.74,4-.06s1.4-2.75,1-4.25c-.81-3.2-3.35-5.49-6.11-7.1-2.55-1.48-6.23.77-6.63,3.57A5.85,5.85,0,0,0,39.94,32.93Z"/><path class="cls-6" d="M49.18,23.18a2,2,0,0,0,.75,1.93,1.66,1.66,0,0,0,2,0,1.82,1.82,0,0,0,.25-2.26C51.3,21.29,49.47,21.22,49.18,23.18Z"/><path class="cls-6" d="M54.65,24.34a2.55,2.55,0,0,0,.48,2.14,4.89,4.89,0,0,0,1.77,1.38,2.18,2.18,0,0,0,2.21.12,1.92,1.92,0,0,0,.46-2C59.09,24.13,55.49,21.16,54.65,24.34Z"/><path class="cls-6" d="M44,18a1.64,1.64,0,0,0,.25,1.67,1.54,1.54,0,0,0,1.63.16,2.86,2.86,0,0,0,1.65-1.75c.29-.9.23-2.51-1-2.38A3.47,3.47,0,0,0,44,18Z"/><path class="cls-6" d="M33,22c-.54.08-1.16.3-1.33.82s.27,1.14.74,1.5a5.73,5.73,0,0,0,2.39,1.06,2.39,2.39,0,0,0,1.75-.21,1.65,1.65,0,0,0-.07-2.68A5.15,5.15,0,0,0,33,22Z"/><path class="cls-7" d="M40,79.53A20.29,20.29,0,0,1,23.46,57.66a40.45,40.45,0,0,1,2.05-8.42c.53-1.64,1.07-3.33,1.47-5,.59-2.5,1.56-8.73-2.11-12.57-2.26-2.36-5.48-3.12-8.9-3.93A34.39,34.39,0,0,1,10.16,26,16.49,16.49,0,0,1,1.08,15.73a16.45,16.45,0,0,1,2-13.55l.92.6A15.28,15.28,0,0,0,2.14,15.42,15.3,15.3,0,0,0,10.6,25a32.72,32.72,0,0,0,5.63,1.68c3.42.81,7,1.65,9.43,4.25,2.85,3,3.71,7.92,2.39,13.57-.41,1.72-1,3.44-1.49,5.09a39.36,39.36,0,0,0-2,8.19A19.19,19.19,0,0,0,40.23,78.45Z"/><path class="cls-7" d="M13.83,44.22a8.36,8.36,0,0,1,4.88,5.35A14,14,0,0,1,18.8,57a9,9,0,0,1-2.38,4.71A8,8,0,0,1,11,63.54C6.32,63.58.83,60.66-.75,56c-.68-2,.38-3.45,1.61-5,1.6-2,3.1-4.08,5.24-5.5A8.93,8.93,0,0,1,13.83,44.22Z"/></g></g></svg>