<svg xmlns="http://www.w3.org/2000/svg" xmlns:xlink="http://www.w3.org/1999/xlink" viewBox="0 0 70 70"><defs><style>.cls-1{fill:none;}.cls-2{fill:#e5e5ff;}.cls-3{clip-path:url(#clip-path);}.cls-4{fill:#1f1a68;}.cls-5{fill:#908bef;}.cls-6{fill:#ffa900;}.cls-7{fill:#4e54de;}</style><clipPath id="clip-path"><circle class="cls-1" cx="35" cy="35" r="33.35" transform="translate(-5.07 64.06) rotate(-80.94)"/></clipPath></defs><g id="OBJECTS"><circle class="cls-2" cx="35" cy="35" r="33.35" transform="translate(-5.07 64.06) rotate(-80.94)"/><g class="cls-3"><path class="cls-4" d="M40.6,14.84c1.78,1.63,4,2.86,5.19,5,2.63,4.84-1.88,11.35.8,16.16,1.65,3,5.49,4,8.89,3.87a19.14,19.14,0,0,0,14.85-8.53,19.16,19.16,0,0,0,1.8-17C70.46,10,67.25,6.38,63.69,3.38a33.31,33.31,0,0,0-12-6.83c-3.5-1-9.37-1.88-12.69.3s-3.36,8-2.47,11.31A14.09,14.09,0,0,0,40.6,14.84Z"/><path class="cls-5" d="M15.27,44.57c2.22.18,4.28,1.4,6.5,1.37,3,0,5.57-2.36,7.25-4.89S31.88,35.63,34,33.4s5.47-3.66,8.17-2.27c4.43,2.28,3.53,9.79,7.85,12.27,1.74,1,3.88.88,5.81,1.4,5,1.38,7.85,7.22,7.13,12.37s-4.24,9.52-8.32,12.75a37.4,37.4,0,0,1-25.8,7.84c-6.93-.54-16.54-3.26-21-9.05-3-3.95-3-13.2-1.37-17.52C7.75,47.59,11.17,44.22,15.27,44.57Z"/><path class="cls-6" d="M2.92,34.83c3.83.82,7.82.21,11.6-.81,5.69-1.55,11.37-4.25,14.82-9.05a17.16,17.16,0,0,0-.59-20.78,10.23,10.23,0,0,0-6.2-4c-2.48-.37-5.29.85-6.19,3.19A10.72,10.72,0,0,0,16.11,8c.21,3.3-.18,6.79-2,9.52S8.61,22,5.5,20.85s-5-4.69-8.32-5.21c-2.88-.47-5.71,1.9-6.43,4.74A8.82,8.82,0,0,0-6.56,29C-3.63,31.4-.92,34,2.92,34.83Z"/><path class="cls-7" d="M45.59,32c.86-1.62,2.4-3.27,4.21-3a3.43,3.43,0,0,1,2.57,3.3A8,8,0,0,1,51,36.56c1.6-1.14,3.57-2.34,5.4-1.62a3.73,3.73,0,0,1,2.14,3.61,6.67,6.67,0,0,1-1.81,4,11.29,11.29,0,0,1-9.27,3.65c-1.53-.11-2.58-.41-3.09-1.93a15.55,15.55,0,0,1-.63-5.71A16.27,16.27,0,0,1,45.59,32Z"/><path class="cls-6" d="M77.85,46.6A19.7,19.7,0,0,1,58.19,28.9,17.33,17.33,0,0,1,60,19a13.65,13.65,0,0,1,7.6-6.56l.34,1a12.58,12.58,0,0,0-7,6,16.27,16.27,0,0,0-1.7,9.24A18.64,18.64,0,0,0,79.37,45.44l.09,1.09C78.92,46.58,78.38,46.6,77.85,46.6Z"/><path class="cls-4" d="M17.6,37a1.18,1.18,0,0,1,.86.53,1,1,0,0,1-.34,1.09,2.79,2.79,0,0,1-2.5.55c-.63-.15-3.85-1.52-2.28-2A8.21,8.21,0,0,1,17.6,37Z"/><path class="cls-4" d="M24.81,41.24c.46,0,1,.19,1.13.62a1.13,1.13,0,0,1-.3,1A3.13,3.13,0,0,1,23.32,44c-.81,0-2.57-.53-1.68-1.57A4.22,4.22,0,0,1,24.81,41.24Z"/><path class="cls-4" d="M30.1,40.07a1.58,1.58,0,0,1,1.93.4,1.66,1.66,0,0,1,.25,1.25,3.93,3.93,0,0,1-.46,1.22c-.51,1-2.18,2.54-3,.91A3.16,3.16,0,0,1,30.1,40.07Z"/><path class="cls-4" d="M19,39.75a.69.69,0,0,0-.47.48.48.48,0,0,0,.15.39.84.84,0,0,0,.39.19c.48.11,1.41-.18,1.39-.81S19.4,39.61,19,39.75Z"/><path class="cls-4" d="M23.91,39a1,1,0,0,1,.6-.71.66.66,0,0,1,.81.33,1,1,0,0,1-.05.66,2.31,2.31,0,0,1-.25.61c-.2.32-.7.59-1,.28S23.82,39.34,23.91,39Z"/></g></g></svg>