<svg xmlns="http://www.w3.org/2000/svg" xmlns:xlink="http://www.w3.org/1999/xlink" viewBox="0 0 70 70"><defs><style>.cls-1{fill:none;}.cls-2{fill:#908bef;}.cls-3{clip-path:url(#clip-path);}.cls-4{fill:#4e54de;}.cls-5{fill:#1f1a68;}.cls-6{fill:#ffa900;}.cls-7{fill:#e5e5ff;}</style><clipPath id="clip-path"><circle class="cls-1" cx="35" cy="35" r="33.35" transform="translate(-6.44 62.07) rotate(-78.16)"/></clipPath></defs><g id="OBJECTS"><circle class="cls-2" cx="35" cy="35" r="33.35" transform="translate(-6.44 62.07) rotate(-78.16)"/><g class="cls-3"><path class="cls-4" d="M87.69,45.06l0-1.1c-9.78.38-19.6.58-29.43.66l.25-10.44c4.58.1,9.2.19,13.84.19a187.8,187.8,0,0,0,28.42-1.81l-.17-1.09C86.65,33.6,72.37,33.38,58.5,33.08l.29-12.19,33.13-.65,0-1.1-33.08.65.24-10.26,22.41.25V8.68L59.09,8.43,59.4-4.3l-1.1,0L58,8.42l-9.07-.1q-.24-11.77-.84-23.5l-1.1.06q.62,11.68.84,23.43l-11-.13.39-22-1.1,0L35.75,8.17,26.2,8.06l.51-20.22-1.1,0-.5,20.24L14.85,7.94l.7-18-1.1,0-.7,18L-2.44,7.74v1.1L13.71,9l-.45,11.66L-9,21.11l0,1.1,22.24-.43-.4,10.3-22.46-.49,0,1.1,22.44.49-.42,10.74q-11.53-.45-23-1.16l-.07,1.09c7.66.48,15.36.84,23.06,1.14l-.48,12.48Q.54,57.31-10.7,56.91l0,1.1c7.49.27,15,.44,22.53.55L11.39,69l1.1,0,.4-10.43q5.47.08,11,.09l-.46,18.17,1.1,0,.45-18.2h2.2c2.57,0,5.14,0,7.72,0l-.34,19.27,1.09,0L36,58.63q5.53,0,11.07-.15c-.46,8.89-1.06,17.77-1.85,26.6l1.09.1q1.18-13.31,1.86-26.72,4.34-.09,8.66-.21l-.3,12.85,1.09,0,.31-12.91q9.39-.27,18.74-.69l0-1.1q-9.3.43-18.66.7l.27-11.4Q73,45.61,87.69,45.06Zm-30.57-.43-8.43,0c.11-3.56.21-7.12.27-10.69l7.78.17.63,0ZM47.87,32.85,36.42,32.6l.2-11.28L48,21.1Q48,27,47.87,32.85Zm-12.55-.27-9.72-.22.27-10.83,9.65-.19Zm0,1.09-.19,10.86q-4.91-.08-9.81-.19l.27-10.88Zm1.1,0L47.86,34c-.06,3.57-.15,7.13-.27,10.7-3.79,0-7.59,0-11.38-.1Zm21-.64h-.63L49,32.88q.09-5.91.08-11.8l8.64-.17ZM58,9.52l-.24,10.29L49,20c0-3.52,0-7-.09-10.56ZM47.85,9.4c.06,3.53.09,7.07.1,10.6l-11.31.22.19-10.94ZM35.73,9.27l-.19,11-9.64.19.28-11.27ZM14.81,9l10.27.12-.28,11.3-10.44.21Zm-.49,12.72,10.45-.2L24.5,32.34,13.92,32.1ZM13.87,33.2l10.6.24L24.2,44.31q-5.37-.15-10.74-.34Zm-.93,24.28L13.42,45q5.37.2,10.76.35l-.31,12.18Q18.39,57.56,12.94,57.48Zm12,.09.3-12.16c3.28.09,6.55.18,9.82.23l-.21,11.91C31.58,57.57,28.27,57.58,25,57.57Zm11,0,.21-11.89c3.79.06,7.58.08,11.37.09-.12,3.89-.29,7.77-.48,11.65Q41.53,57.5,36,57.54Zm20.84-.38q-4.32.12-8.64.2.28-5.79.48-11.61l1.89,0,6.55,0Z"/><path class="cls-5" d="M31.1,26.06a9.25,9.25,0,0,0-9.27,3c-3.16,3.49-3.92,9.13-8.06,11.38-3.06,1.67-7.19.94-9.83,3.21A6.7,6.7,0,0,0,1.78,48.6,12.31,12.31,0,0,0,3,53.94,22,22,0,0,0,22.29,66.71,22,22,0,0,0,42,54.58C46.57,45.15,42.53,28.64,31.1,26.06Z"/><path class="cls-6" d="M41.36,17.68a7.75,7.75,0,0,0,1.75,8.61,7.88,7.88,0,0,0,8.72,1.21A8,8,0,0,0,56,19.74c-.33-3-3.09-6.79-6.31-7.09S42.61,14.88,41.36,17.68Z"/><path class="cls-7" d="M19.2,22.12c-.29.71-.47,1.66.13,2.13a1.86,1.86,0,0,0,1.85-.07,9.8,9.8,0,0,0,2.91-1.76,4.48,4.48,0,0,0,1.5-3c.08-1.92-1.35-3.44-3-2.11A12.37,12.37,0,0,0,19.2,22.12Z"/><path class="cls-7" d="M27.7,15.49a1.58,1.58,0,0,0,1.51.87,1.53,1.53,0,0,0,.37-.08,1.39,1.39,0,0,0,0-2.71C28.44,13.35,27.14,14.23,27.7,15.49Z"/><path class="cls-7" d="M20.15,14a2,2,0,0,0,1.55.44A2.66,2.66,0,0,0,23.24,14c1.4-1.09.1-3.13-1.39-3.19S19.1,12.88,20.15,14Z"/><path class="cls-7" d="M14,21.35a1.79,1.79,0,0,0,2,.73,1.82,1.82,0,0,0,1.27-1.68A1.85,1.85,0,0,0,16,18.68,1.77,1.77,0,0,0,14,21.35Z"/></g></g></svg>