<svg xmlns="http://www.w3.org/2000/svg" xmlns:xlink="http://www.w3.org/1999/xlink" viewBox="0 0 70 70"><defs><style>.cls-1{fill:none;}.cls-2{fill:#ffa900;}.cls-3{clip-path:url(#clip-path);}.cls-4{fill:#ff6a05;}.cls-5{fill:#e5e5ff;}.cls-6{fill:#4e54de;}.cls-7{fill:#1f1a68;}</style><clipPath id="clip-path"><circle class="cls-1" cx="35" cy="35" r="33.35"/></clipPath></defs><g id="OBJECTS"><circle class="cls-2" cx="35" cy="35" r="33.35"/><g class="cls-3"><path class="cls-4" d="M44.84,52.28C41.28,48.62,35.06,48.2,32.15,44c-2-2.87-1.8-6.64-1.8-10.13s-.48-7.41-3.23-9.56a9.51,9.51,0,0,0-6.56-1.6C14.06,23.14,8.11,27,4.07,32.1A43.09,43.09,0,0,0-3.14,47,32,32,0,0,0,5.2,62.25,36.65,36.65,0,0,0,24.76,72.43,25.86,25.86,0,0,0,37.25,72,15.24,15.24,0,0,0,46.6,64C48.3,60.19,47.78,55.29,44.84,52.28Z"/><path class="cls-5" d="M41.11,27.7a14.61,14.61,0,0,0,.31,7.52A10.91,10.91,0,0,0,46,41.14,10.8,10.8,0,0,0,56.79,41,13.73,13.73,0,0,0,63,31.88a14,14,0,0,0-1.67-10.06c-2.14-3.41-6-6.12-10.17-5.6a10.76,10.76,0,0,0-7.28,4.85A18.5,18.5,0,0,0,41.11,27.7Z"/><path class="cls-6" d="M56.51,37.91a3.48,3.48,0,0,0-.91-1.21,9.6,9.6,0,0,0-5.19-2.27c-.65-.09-4-.42-4.87.06a62.48,62.48,0,0,1-8.35-2.19h0A43.83,43.83,0,0,0,46.11,32a3.07,3.07,0,0,0,2.45-1.26,1.94,1.94,0,0,0-.19-1.9,3.65,3.65,0,0,0-1.53-1.24,9.14,9.14,0,0,0-7-.07,26.35,26.35,0,0,0-6.09,3.44,27,27,0,0,1-8.31-5.73L31.28,27a5.79,5.79,0,0,0,2,.39,2,2,0,0,0,1.7-1,1.92,1.92,0,0,0-.19-1.86,4.18,4.18,0,0,0-1.48-1.25,11,11,0,0,0-9.78-.49,28.61,28.61,0,0,1-4.11-8.36,16.31,16.31,0,0,0,9.62,2.67,2,2,0,0,0,1.34-.41,1.43,1.43,0,0,0,.2-1.64,3.45,3.45,0,0,0-1.2-1.26A13.65,13.65,0,0,0,18.65,11.7c0-.09,0-.17-.07-.26A89,89,0,0,1,16.9-3.88a.51.51,0,0,0-.57-.52.54.54,0,0,0-.52.57,89.88,89.88,0,0,0,1.7,15.52c.09.4.2.79.3,1.18A16.35,16.35,0,0,0,13.08,25a2.08,2.08,0,0,0,.7,1.74,1.42,1.42,0,0,0,1.4,0,3.6,3.6,0,0,0,1.1-1,14.23,14.23,0,0,0,3.23-7.81,28.12,28.12,0,0,0,2.16,4.12,22,22,0,0,0,.52,12.05c.3.88.8,1.86,1.71,2a1.78,1.78,0,0,0,1.72-1,4.34,4.34,0,0,0,.42-2A17.69,17.69,0,0,0,24.73,26a27.68,27.68,0,0,0,8.34,5.81,19.4,19.4,0,0,0,6.2,9.7,4.37,4.37,0,0,0,1.49.92,1.77,1.77,0,0,0,1.67-.24c.75-.62.63-1.8.31-2.72a11.51,11.51,0,0,0-4.12-5.55,69.61,69.61,0,0,0,7.22,1.75c.39.43.9.84,1.11,1.06a16.77,16.77,0,0,0,2.1,1.84,8.76,8.76,0,0,0,5.33,1.86,2.38,2.38,0,0,0,2.14-1A1.76,1.76,0,0,0,56.51,37.91Z"/><path class="cls-7" d="M43.22,54.58a2.45,2.45,0,0,0-1.12,2A1.86,1.86,0,0,0,43,57.89a4.24,4.24,0,0,0,1.51.56,11.63,11.63,0,0,0,5.5-.21A2.83,2.83,0,0,0,51.83,57c1.06-2.1-2-3.24-3.42-3.76C46.66,52.62,44.61,53.48,43.22,54.58Z"/><path class="cls-7" d="M52.48,51.5c2.38.15,1.43-2.64-.33-2.75a1.61,1.61,0,0,0-1.62,1.14C50.18,51.11,51.58,51.44,52.48,51.5Z"/><path class="cls-7" d="M36.84,52.79a1.67,1.67,0,0,0,2,.11,2.38,2.38,0,0,0,1-1.88,2.34,2.34,0,0,0-.34-1.37,1.8,1.8,0,0,0-2.82-.16A3,3,0,0,0,36.84,52.79Z"/><path class="cls-7" d="M31.83,51.91a3.83,3.83,0,0,0-3.35-.13,2.34,2.34,0,0,0-1.15,2.93,2.53,2.53,0,0,0,1.5,1.21,7.93,7.93,0,0,0,2,.3l2.25.14a2,2,0,0,0,1.7-.4C36.14,54.39,32.89,52.42,31.83,51.91Z"/><path class="cls-7" d="M59.73,25.5A32.82,32.82,0,0,1,50.42,24a27,27,0,0,1-9.82-4.81A22.94,22.94,0,0,1,33.36,7.71a40.79,40.79,0,0,1-1.31-13.5l1.09,0A40,40,0,0,0,34.42,7.41,21.79,21.79,0,0,0,41.3,18.34,25.86,25.86,0,0,0,50.73,23a29.34,29.34,0,0,0,10.92,1.37,16.21,16.21,0,0,0,9.85-4.16A11.11,11.11,0,0,0,75,10.46l1.08-.19A12.21,12.21,0,0,1,72.26,21a17.33,17.33,0,0,1-10.52,4.47C61.08,25.47,60.41,25.5,59.73,25.5Z"/></g></g></svg>