<svg id="Слой_1" data-name="Слой 1" xmlns="http://www.w3.org/2000/svg" viewBox="0 0 187.4 100.6"><defs><style>.cls-1{fill:#4d4d4d;}</style></defs><path class="cls-1" d="M21.37,33.52a21.7,21.7,0,0,0-4-6.7,8.47,8.47,0,0,0-4.5-2.3v-1.7a14.89,14.89,0,0,0,1.7-.1,15.77,15.77,0,0,1,1.9-.1,36.71,36.71,0,0,1,4.6.3,14.44,14.44,0,0,1,8.8,4.7,19.13,19.13,0,0,1,3.5,5.8l13.5,31.9S51.07,45,53,38.42c1.7-6.1,8.2-23.9,8.2-23.9l23.5,10.1s-15.6,5.1-19.9,8.4c-11.1,8.3-15,34.4-16.5,44.7a23.9,23.9,0,0,0,4.2,17.8s-4-4.2-5.7-6.2c-1-1.2-5.1-6.8-5.1-6.8Z"/><path class="cls-1" d="M66,61.52a9.57,9.57,0,0,0-.8-4.4c-.5-1.1-1.7-1.7-3.5-1.7h-.6v-1.8h7.4a8.42,8.42,0,0,1,2.7.4,3.71,3.71,0,0,1,1.7,1.3,5.42,5.42,0,0,1,.9,2.4,16.17,16.17,0,0,1,.2,3.8v20.8H66Zm7.4-14.7a3.32,3.32,0,0,1-1,2.5,3.41,3.41,0,0,1-2.4.9,4,4,0,0,1-3.4-1.4,4.34,4.34,0,0,1-1.1-3.2,3.32,3.32,0,0,1,1-2.5,3.41,3.41,0,0,1,2.4-.9,4.27,4.27,0,0,1,3.5,1.4A5.53,5.53,0,0,1,73.37,46.82Z"/><path class="cls-1" d="M93.57,55.62a6,6,0,0,0-5.3,3c-1.4,2-2.1,5.1-2.1,9.2,0,8.2,2.6,12.2,7.7,12.2a8.13,8.13,0,0,0,5.2-1.5,15.38,15.38,0,0,0,3.6-3.6l1.9,1.4a17.68,17.68,0,0,1-1.6,2.2,12.06,12.06,0,0,1-2.4,2.1,14.36,14.36,0,0,1-3.3,1.6,17.59,17.59,0,0,1-4.6.6,17.32,17.32,0,0,1-6.4-1.2,13.18,13.18,0,0,1-4.6-3.2,14.43,14.43,0,0,1-2.8-4.8,19.14,19.14,0,0,1,0-11.6,12.92,12.92,0,0,1,2.8-4.8,12.33,12.33,0,0,1,4.6-3.2,17.32,17.32,0,0,1,6.4-1.2,28.79,28.79,0,0,1,5.9.5,7.08,7.08,0,0,1,3.6,1.7,4.77,4.77,0,0,1,1.3,3.1c.1,1.3.2,3.1.2,5.4h-1.8a8.49,8.49,0,0,0-2.4-5.9A9.17,9.17,0,0,0,93.57,55.62Z"/><path class="cls-1" d="M117.27,53.52H124v2.8h-6.7v18a9.36,9.36,0,0,0,.8,4.6,2.73,2.73,0,0,0,2.4,1.2,12.25,12.25,0,0,0,1.9-.2,5.23,5.23,0,0,0,1.6-.6,6.71,6.71,0,0,0,1.4-.9l.9,1.7a8,8,0,0,1-1.9,1.3,10.64,10.64,0,0,1-2.5.9,11.07,11.07,0,0,1-3.6.4,9.13,9.13,0,0,1-6.5-2.3c-1.6-1.5-2.4-3.7-2.4-6.7V56.32h-3.7v-2.8h3.7V48l3.1-3.7h4.9v9.2Z"/><path class="cls-1" d="M126.47,67.92a17,17,0,0,1,1-5.9,13.46,13.46,0,0,1,7.5-8,16.36,16.36,0,0,1,12.3,0,13.46,13.46,0,0,1,7.5,8,18.34,18.34,0,0,1,0,11.8,13.46,13.46,0,0,1-7.5,8,17.37,17.37,0,0,1-12.3,0,13.46,13.46,0,0,1-7.5-8A17,17,0,0,1,126.47,67.92Zm21.1,0a27,27,0,0,0-.4-4.9,13.56,13.56,0,0,0-1.2-3.9,6.3,6.3,0,0,0-2-2.6,4.8,4.8,0,0,0-5.6,0,6.3,6.3,0,0,0-2,2.6,12.66,12.66,0,0,0-1.2,3.9,31.55,31.55,0,0,0,0,9.7,14.58,14.58,0,0,0,1.2,3.9,6.3,6.3,0,0,0,2,2.6,4.81,4.81,0,0,0,5.6,0,6.3,6.3,0,0,0,2-2.6,12.66,12.66,0,0,0,1.2-3.9,25.22,25.22,0,0,0,.4-4.8Z"/><path class="cls-1" d="M175.27,52.92a7.19,7.19,0,0,1,4.3,1.2,2,2,0,0,1,.9.9,8.85,8.85,0,0,1,1.1,1.9l-3.1,2.4a12,12,0,0,0-1.1-1.2,14.63,14.63,0,0,0-1.3-.9,3.92,3.92,0,0,0-1.8-.4,9.19,9.19,0,0,0-3.3.6,7.43,7.43,0,0,0-2.1,1.3c0,.3.1.6.1.9s.1.6.1,1v21.7h-8V61.52A20.9,20.9,0,0,0,161,59a6.64,6.64,0,0,0-.6-2,3.25,3.25,0,0,0-1.3-1.3,4.31,4.31,0,0,0-2.2-.4h-.6v-1.8h6.1a9.46,9.46,0,0,1,3.3.5,3.94,3.94,0,0,1,1.9,1.7,11.73,11.73,0,0,1,3-1.9A9.22,9.22,0,0,1,175.27,52.92Z"/></svg>