<svg xmlns="http://www.w3.org/2000/svg" xmlns:xlink="http://www.w3.org/1999/xlink" viewBox="0 0 70 70"><defs><style>.cls-1{fill:none;}.cls-2{fill:#1f1a68;}.cls-3{clip-path:url(#clip-path);}.cls-4{fill:#4e54de;}.cls-5{fill:#ff6a05;}.cls-6{fill:#ffa900;}.cls-7{fill:#b3b2f8;}</style><clipPath id="clip-path"><circle class="cls-1" cx="35" cy="35" r="33.35"/></clipPath></defs><g id="OBJECTS"><circle class="cls-2" cx="35" cy="35" r="33.35"/><g class="cls-3"><path class="cls-4" d="M22.92,57.51a19.22,19.22,0,0,1-6-11.76,12.92,12.92,0,0,1,.48-5.83A7.87,7.87,0,0,1,21,35.5c2.9-1.49,6.42-.61,9.52.41S37,38.06,40.1,37a13,13,0,0,0,4.62-3.25,20.44,20.44,0,0,1,4.37-3.63,5.82,5.82,0,0,1,5.46-.27c1.84,1,2.62,3.25,3,5.33a23.71,23.71,0,0,1-15.4,26.37,17.92,17.92,0,0,1-12.52-.05A19.2,19.2,0,0,1,22.92,57.51Z"/><path class="cls-5" d="M20.92,15a4.69,4.69,0,0,0,5.7.23c2-1.68,1.78-4.83,1.13-7.38S26.26,2.42,27.61.16A5.48,5.48,0,0,1,33.75-2a8.47,8.47,0,0,1,5,4.6,19.34,19.34,0,0,1,1.56,6.78c.28,3.42.23,7-1.14,10.12a14,14,0,0,1-10.06,7.94,16.06,16.06,0,0,1-12.58-3.06,18.8,18.8,0,0,1-6.86-11.1C9,10.14,9.19,6.59,11.15,4c1.63-2.13,7.21-4.56,7.56-.34C19,7.64,17.16,12,20.92,15Z"/><path class="cls-6" d="M35.76,15.84a6.37,6.37,0,0,0-.71,7.68,6.81,6.81,0,0,0,7.28,2.78,7.32,7.32,0,0,0,5.23-5.87c.33-2.1-.32-5.09-2.11-6.46-1.47-1.12-4.18-.67-5.8-.24A8.35,8.35,0,0,0,35.76,15.84Z"/><path class="cls-6" d="M49.84,18a1.28,1.28,0,0,0,.51.59,1.22,1.22,0,0,0,1.32-.11,2.09,2.09,0,0,0,.22-.2,1.77,1.77,0,0,0,.26-1.62C51.43,14.41,49,16.25,49.84,18Z"/><path class="cls-6" d="M46.84,12.15a2.62,2.62,0,0,0,1.06,1.1,1.82,1.82,0,0,0,2.16-.66,2.5,2.5,0,0,0,.2-2.33C49.77,9,48.07,7.48,46.62,8,45,8.62,46.25,11.16,46.84,12.15Z"/><path class="cls-6" d="M51.43,22.46a2,2,0,0,0,1,1,5.51,5.51,0,0,0,1.38.42c1.33.28,3.05.46,3.73-1a2.7,2.7,0,0,0-.69-3.1C55.24,18.61,50.5,20,51.43,22.46Z"/><path class="cls-6" d="M38.24,29.42a1.22,1.22,0,0,0-.5,1.39,1.06,1.06,0,0,0,.95.6A1.57,1.57,0,0,0,39.76,31a2.11,2.11,0,0,0,.65-1.35C40.51,28.37,38.77,29,38.24,29.42Z"/><path class="cls-7" d="M69.91,69.55A20.29,20.29,0,0,0,46.23,54.93c-.63.13-1.25.29-1.87.45a18.51,18.51,0,0,1-4.53.76h0c-2.23,0-4.86-1-5.73-3.34a8.17,8.17,0,0,1-.1-4A6.24,6.24,0,0,0,33.79,45a4,4,0,0,0-2.88-1.88,13.53,13.53,0,0,0-3.81,0c-5.08.54-10.34.86-14.92-1.39S4,34.33,2.65,28.08C1.49,22.48,2,16.75,2.58,11.21l1.1.11c-.54,5.45-1.09,11.1,0,16.53,1.24,5.93,4.58,10.76,9,12.92s9.4,1.81,14.23,1.3a14.5,14.5,0,0,1,4.21,0,5,5,0,0,1,3.65,2.46,7.08,7.08,0,0,1,.3,4.41,7.27,7.27,0,0,0,0,3.51C35.78,54.23,38,55,39.8,55h0a17.28,17.28,0,0,0,4.26-.72c.64-.17,1.29-.33,1.93-.46a21.36,21.36,0,0,1,25,15.4Z"/></g></g></svg>