<svg xmlns="http://www.w3.org/2000/svg" xmlns:xlink="http://www.w3.org/1999/xlink" viewBox="0 0 70 70"><defs><style>.cls-1{fill:none;}.cls-2{fill:#908bef;}.cls-3{clip-path:url(#clip-path);}.cls-4{fill:#1f1a68;}.cls-5{fill:#4e54de;}.cls-6{fill:#ffa900;}.cls-7{fill:#ff6a05;}.cls-8{fill:#e5e5ff;}</style><clipPath id="clip-path"><circle class="cls-1" cx="35" cy="35" r="33.35"/></clipPath></defs><g id="OBJECTS"><circle class="cls-2" cx="35" cy="35" r="33.35"/><g class="cls-3"><path class="cls-4" d="M16,14.1A13.17,13.17,0,0,1,12.88,28a11.26,11.26,0,0,1-8.31,3.2,9,9,0,0,1-7.42-4.67,12.33,12.33,0,0,1-1-6.45,20.85,20.85,0,0,1,2.4-8.65C-.32,9.3,2.42,5.16,5.2,5.67a14.86,14.86,0,0,1,8,4.09A12.54,12.54,0,0,1,16,14.1Z"/><path class="cls-4" d="M61.34,52.35a33.42,33.42,0,0,0-8.29-.79,32.87,32.87,0,0,0-7.86.77A14.37,14.37,0,0,0,38.3,56a9.29,9.29,0,0,0-2.78,7.15,10,10,0,0,0,4.9,7.28,20.83,20.83,0,0,0,8.64,2.63A25.68,25.68,0,0,0,56.79,73a13.62,13.62,0,0,0,6.91-3.31,13.36,13.36,0,0,0,3.78-7.31,21.54,21.54,0,0,0,0-6.94A15.24,15.24,0,0,0,61.34,52.35Z"/><path class="cls-5" d="M22,16.78c-1.39,2.45-2.13,5.76-.31,7.9,1,1.16,2.55,1.73,3.46,3,1.17,1.57.95,3.79.21,5.6s-1.94,3.41-2.64,5.23-.82,4.08.45,5.57,3.49,1.72,5.36,1.22a26.18,26.18,0,0,0,5.23-2.51,8.44,8.44,0,0,1,5.57-1.17c1.9.41,3.38,1.86,5.16,2.63,3.24,1.4,7.19.3,9.82-2.06a17.37,17.37,0,0,0,4.87-9.22A21.33,21.33,0,0,0,59,21.77c-2.7-8.38-12.32-14-20.86-13.93C31.56,7.92,25.32,11,22,16.78Z"/><path class="cls-6" d="M44,45.05c-1.43,2.66-1.91,5.85-.53,8.43A7.07,7.07,0,0,0,50,57a8.53,8.53,0,0,0,6.47-3.86A10.79,10.79,0,0,0,58,45.65C57.25,40.36,52,37.89,47.53,41A11.59,11.59,0,0,0,44,45.05Z"/><path class="cls-7" d="M25.29,34.64a7.46,7.46,0,0,0,4.63-6.53,4.42,4.42,0,0,0-1.58-3.74,5.22,5.22,0,0,0-4.3-.43A14.3,14.3,0,0,0,13.73,35.38a2.39,2.39,0,0,0-1.59-1.59A3.29,3.29,0,0,0,8.7,35.41a6.23,6.23,0,0,0-.64,4c.16,1.34.57,2.65.8,4A16.08,16.08,0,0,1,5.07,56.59L3.2,61.05c1.3-2.46,4.43-3.32,7.21-3.24s5.54.83,8.3.54c1.56-.17,3.36-1,3.52-2.55a2.67,2.67,0,0,0-1.17-2.3A6.55,6.55,0,0,0,24.21,53a5.61,5.61,0,0,0,3.34-5.51,4.54,4.54,0,0,0-4.78-4c2.3-.5,4.89-1.23,5.9-3.35a4,4,0,0,0-.87-4.52A3.92,3.92,0,0,0,25.29,34.64Z"/><path class="cls-8" d="M41.55,78.9A17.44,17.44,0,0,1,31.33,51.49a34.88,34.88,0,0,1,2.76-3.16A23.59,23.59,0,0,0,37.59,44c1.61-2.79,2-6.14,2.37-9.39l.16-1.33c.46-3.7,1.31-7.87,4.14-10.67,2.15-2.12,5.34-3.36,9.5-3.69,1.57-.13,3.16-.13,4.71-.13a49.21,49.21,0,0,0,5.28-.18A25.38,25.38,0,0,0,74,15.25l.56.95a26.73,26.73,0,0,1-10.7,3.52c-1.8.18-3.66.17-5.4.18-1.52,0-3.1,0-4.63.12C50,20.33,47,21.47,45,23.4c-2.6,2.57-3.39,6.51-3.83,10l-.16,1.32c-.39,3.35-.79,6.82-2.5,9.8a24.9,24.9,0,0,1-3.67,4.54,35.1,35.1,0,0,0-2.67,3,16.35,16.35,0,0,0,9.58,25.69Z"/></g></g></svg>