<svg xmlns="http://www.w3.org/2000/svg" xmlns:xlink="http://www.w3.org/1999/xlink" viewBox="0 0 70 70"><defs><style>.cls-1{fill:none;}.cls-2{fill:#4e54de;}.cls-3{clip-path:url(#clip-path);}.cls-4{fill:#1f1a68;}.cls-5{fill:#b3b2f8;}.cls-6{fill:#ffa900;}.cls-7{fill:#e5e5ff;}</style><clipPath id="clip-path"><circle class="cls-1" cx="35.38" cy="35.49" r="33.35"/></clipPath></defs><g id="OBJECTS"><circle class="cls-2" cx="35.38" cy="35.49" r="33.35"/><g class="cls-3"><path class="cls-4" d="M15,21.58c.43,1.05,1.18,2,1.58,3,.75,2,.08,4.34-.9,6.29s-2.28,3.75-2.88,5.85-.3,4.66,1.44,6c2.57,1.94,6.51.11,9.36,1.61,2.48,1.31,3.29,4.7,5.75,6,2.22,1.2,5.11.26,6.91-1.51s2.76-4.2,3.7-6.55,2-4.75,3.84-6.44C45,34.77,46.42,34.05,47.57,33a10,10,0,0,0,2.73-8.11,20,20,0,0,0-3-8.25C44.75,12.25,41.08,8,35.94,6.82s-11,1.12-15.25,4C17.4,13.12,13.16,17.18,15,21.58Z"/><path class="cls-5" d="M20.21,50.31c-.26,1.1-.38,2.47.52,3.13a2.05,2.05,0,0,0,2.44-.28A6,6,0,0,0,24.58,51a15.4,15.4,0,0,0-.5,5.76A5.24,5.24,0,0,0,27.52,61a3.82,3.82,0,0,0,4.71-4.51,10.2,10.2,0,0,0,.44,2.75,3.3,3.3,0,0,0,1.81,2,3,3,0,0,0,3.42-1.22,5,5,0,0,0,.62-3.77,14.71,14.71,0,0,0-1.42-3.64,9.94,9.94,0,0,0,3.2,2.23,3.33,3.33,0,0,0,3.61-.73,3.25,3.25,0,0,0,.43-3,8.41,8.41,0,0,0-1.61-2.69A45.45,45.45,0,0,0,32.24,39c-1.29-.84-4.2-3.23-5.83-3s-2.9,4.51-3.48,5.88A52.77,52.77,0,0,0,20.21,50.31Z"/><path class="cls-6" d="M43.73,22.54a13.92,13.92,0,0,0-2.2,12.36,15.51,15.51,0,0,0,8.41,9.46,8.13,8.13,0,0,0,5.15.79,4.12,4.12,0,0,0,3.29-3.67,4.57,4.57,0,0,0-1.7-3.3A25.94,25.94,0,0,0,53.52,36a7.49,7.49,0,0,1-3.37-4c-.48-1.71.32-3.87,2-4.35,1.34-.38,2.76.31,4.14.16a4,4,0,0,0,3.32-3.23c.67-3.31-2.54-7.24-5.94-7A13.52,13.52,0,0,0,43.73,22.54Z"/><path class="cls-7" d="M.83,61A18.21,18.21,0,0,1,6.41,40c3.09-2.32,6.81-3.51,10.4-4.67A43.32,43.32,0,0,0,25.11,32a14,14,0,0,0,5.82-5.83,8.51,8.51,0,0,0,0-7.83c-1.21-2.11-3.45-3.45-5.61-4.75-.66-.39-1.31-.78-1.93-1.18A26.6,26.6,0,0,1,12-4.65l1.08-.2A25.45,25.45,0,0,0,24,11.5c.61.4,1.25.78,1.89,1.16,2.28,1.37,4.65,2.78,6,5.15a9.59,9.59,0,0,1,0,8.85A15.21,15.21,0,0,1,25.66,33a43.6,43.6,0,0,1-8.51,3.41c-3.67,1.19-7.14,2.3-10.08,4.51A17.05,17.05,0,0,0,1.84,60.6Z"/><path class="cls-7" d="M49.43,52.73a1,1,0,0,0,.67.59.94.94,0,0,0,.78-.25,1.7,1.7,0,0,0,.45-.71c.35-.93.21-3.62-1.29-3.55S49.08,51.94,49.43,52.73Z"/><path class="cls-7" d="M55.34,50.4c1.2-.93-.3-2.88-1.49-2.08S54.05,51.39,55.34,50.4Z"/><path class="cls-7" d="M46.52,48c.94.55,2.15.17,2.12-1a3.73,3.73,0,0,0-1.49-2.58c-.89-.57-1.71.12-1.86,1.07A2.61,2.61,0,0,0,46.52,48Z"/><path class="cls-7" d="M46.8,58.75a1.32,1.32,0,0,0,1.52,1.82,3.36,3.36,0,0,0,2.44-1.16,2.42,2.42,0,0,0,.32-2.6,2.06,2.06,0,0,0-2.53-.89A4.27,4.27,0,0,0,46.8,58.75Z"/></g></g></svg>