<svg xmlns="http://www.w3.org/2000/svg" xmlns:xlink="http://www.w3.org/1999/xlink" viewBox="0 0 70 70"><defs><style>.cls-1{fill:none;}.cls-2{fill:#4e54de;}.cls-3{clip-path:url(#clip-path);}.cls-4{fill:#3d47c4;}.cls-5{fill:#1f1a68;}.cls-6{fill:#ffa900;}.cls-7{fill:#b3b2f8;}.cls-8{fill:#e5e5ff;}</style><clipPath id="clip-path"><circle class="cls-1" cx="35" cy="35" r="33.35" transform="translate(-10.18 14.78) rotate(-20.89)"/></clipPath></defs><g id="OBJECTS"><circle class="cls-2" cx="35" cy="35" r="33.35" transform="translate(-10.18 14.78) rotate(-20.89)"/><g class="cls-3"><path class="cls-4" d="M13.77,9.33c-.73,19-2,38-1,57,.08,1.41-2.12,1.41-2.2,0-.3-5.39-.4-10.79-.37-16.19C10.36,31,11.48,12,12.22-7.09c0-1.41,2.25-1.41,2.19,0ZM22.1,10Q22,.65,21.89-8.66a1.1,1.1,0,0,0-2.2,0q.43,32.61.47,65.22,0,9.31,0,18.64a1.1,1.1,0,0,0,2.19,0Q22.42,42.59,22.1,10ZM33.32-11.35Q31.16,25.37,30.1,62.14q-.3,10.35-.51,20.71a1.1,1.1,0,0,0,2.19,0q.77-36.78,2.61-73.53Q34.92-1,35.52-11.35C35.6-12.76,33.4-12.76,33.32-11.35Zm9.5,5.1Q40.87,27.42,39.3,61.11q-.45,9.6-.87,19.18c-.06,1.41,2.14,1.41,2.2,0q1.45-33.69,3.3-67.38Q44.46,3.32,45-6.25C45.1-7.66,42.9-7.66,42.82-6.25ZM53.09-4.71c-1.39,10-1.78,20.13-2.27,30.22L49.29,57l-.87,17.79c-.07,1.42,2.13,1.41,2.2,0,1-20.54,1.84-41.1,3-61.64C54,7.36,54.41,1.6,55.21-4.12,55.4-5.51,53.28-6.1,53.09-4.71Zm7.52,2.27q-2,28.88-3.93,57.75-.54,8.17-1.07,16.35c-.09,1.41,2.11,1.4,2.2,0q1.88-28.89,3.86-57.76.55-8.18,1.13-16.34C62.9-3.85,60.7-3.85,60.61-2.44Z"/><path class="cls-5" d="M44.93,42.55a21.26,21.26,0,0,0-2.19-3.45,22,22,0,0,0-2.62-2.84c-9.8-8.89-27.78-8.32-36.38,2-.21.26-.42.52-.62.79A20.23,20.23,0,0,0-.77,47.91C-1.19,50.59-.14,53.39.4,56A24.19,24.19,0,0,0,11.18,71.53a24.11,24.11,0,0,0,23.23.86A24.19,24.19,0,0,0,46.17,57.94,20.56,20.56,0,0,0,44.93,42.55Z"/><path class="cls-6" d="M36.24,7.21a18.65,18.65,0,0,0,3.5,14.08,15.82,15.82,0,0,0,13,6.14,7.7,7.7,0,0,0,3.37-.84,4,4,0,0,0,2.07-2.69c.33-1.89-1-3.61-2.39-5a40.33,40.33,0,0,1-4.85-5.28,9.15,9.15,0,0,1-1.79-6.75c.54-2.89,3-5.24,3.13-8.18a5.59,5.59,0,0,0-3.08-5.2C42.16-9.85,37,2.13,36.24,7.21Z"/><path class="cls-7" d="M14.57,23.79A3.4,3.4,0,0,0,14.43,27a2.4,2.4,0,0,0,1.92.94,4.78,4.78,0,0,0,2.12-.56,9.11,9.11,0,0,0,4.34-4.69c.41-1,1.56-6.4-.56-6.31-.95,0-2.28,1.13-3,1.67a14.32,14.32,0,0,0-2.55,2.37A13.9,13.9,0,0,0,14.57,23.79Z"/><path class="cls-7" d="M23.73,12.41a2.67,2.67,0,0,1,1.73-2.57,1.4,1.4,0,0,1,1.48.35,2,2,0,0,1,.33,1,5.6,5.6,0,0,1-.05,2.48c-.26.78-1.19,1.75-2.09,1.46S23.73,13.28,23.73,12.41Z"/><path class="cls-7" d="M16.63,12.83a1,1,0,0,1,.93-.09,1.06,1.06,0,0,1,.33,1c-.08.84-1.17,4.05-2.51,3.26S15.72,13.34,16.63,12.83Z"/><path class="cls-7" d="M27.31,20.94a1.67,1.67,0,0,1,1.14-.38,1.32,1.32,0,0,1,.95.8,2.42,2.42,0,0,1-.3,2.44,3,3,0,0,1-2.25,1.12c-.92,0-2.5-.22-2.06-1.41A6.55,6.55,0,0,1,27.31,20.94Z"/><path class="cls-7" d="M9.47,20c1.43,1.12,3.91-.05,2.25-1.64C10.29,17,7.62,18.52,9.47,20Z"/><path class="cls-7" d="M29.15,19c1.66.29,1.91-2.17.38-2.57C27.84,16,27.56,18.71,29.15,19Z"/><path class="cls-8" d="M47.93,85.11A29.63,29.63,0,0,1,25,50.14c.78-3.78,2.24-6.66,4.36-8.55,2.83-2.52,7.19-3.57,12.61-3,1.57.16,3.15.42,4.68.67a41.67,41.67,0,0,0,8,.79,21.1,21.1,0,0,0,19-14.38l1,.33a22.23,22.23,0,0,1-20,15.15,42.84,42.84,0,0,1-8.26-.81c-1.51-.25-3.08-.5-4.61-.66-3.56-.36-8.49-.17-11.77,2.76-1.94,1.73-3.29,4.4-4,8A28.55,28.55,0,0,0,48.16,84Z"/></g></g></svg>