<svg xmlns="http://www.w3.org/2000/svg" xmlns:xlink="http://www.w3.org/1999/xlink" viewBox="0 0 70 70"><defs><style>.cls-1{fill:none;}.cls-2{fill:#1f1a68;}.cls-3{clip-path:url(#clip-path);}.cls-4{fill:#ffa900;}.cls-5{fill:#4e54de;}.cls-6{fill:#b3b2f8;}.cls-7{fill:#ff6a05;}</style><clipPath id="clip-path"><circle class="cls-1" cx="35" cy="35" r="33.35" transform="translate(-14.04 28.26) rotate(-37.17)"/></clipPath></defs><g id="OBJECTS"><circle class="cls-2" cx="35" cy="35" r="33.35" transform="translate(-14.04 28.26) rotate(-37.17)"/><g class="cls-3"><path class="cls-4" d="M8.32,51.27a9,9,0,0,1,0-3.4,3.52,3.52,0,0,1,2.08-2.54c1.61-.57,3.42.6,4.17,2.13a10.67,10.67,0,0,1,.66,5c-.17-3.27-.33-6.61.53-9.77s2.91-6.18,6-7.35c1.85-.7,4.33-.47,5.31,1.26a5.78,5.78,0,0,1,.31,3.55c-.38,3.14-.77,6.28-1.15,9.41a25.57,25.57,0,0,1,2.49-6.18,8.66,8.66,0,0,1,5.11-4,5.29,5.29,0,0,1,5.8,2.25c.92,1.66.64,3.72,0,5.52a17.28,17.28,0,0,1-5.09,7.55c1.51-1.41,3.11-2.88,5.12-3.38s4.51.32,5.14,2.29a4.16,4.16,0,0,1-.92,3.74,11.12,11.12,0,0,1-3.17,2.43,81,81,0,0,1-10.35,5A26,26,0,0,1,20.3,67.1c-3.2-.08-7.14-1.42-9-4.23C9.31,59.81,8.78,54.82,8.32,51.27Z"/><path class="cls-5" d="M21.24,20.18c2.19,4.67,6.27,8.26,10.82,10.68A27,27,0,0,0,48.84,34,19.26,19.26,0,0,0,62.7,24.57c3.35-6.24,2.26-14.28-1.76-20.1S50.35-5.08,43.48-6.74a39.49,39.49,0,0,0-10.83-1c-2.68.12-6.16.2-8.52,1.68C22.43-5,21.81-3.18,21.26-1.34a44.87,44.87,0,0,0-2,10.06A23.69,23.69,0,0,0,21.24,20.18Z"/><path class="cls-6" d="M64.7,68.38a9,9,0,0,1-5.15-1.6c-2.95-2-4.85-5.72-5.2-10.09-.32-3.93.56-7.84,1.34-11.28l0-.16c.8-3.54,1.63-7.19,1.43-10.8-.23-4.05-1.83-7.5-4.4-9.48-3.24-2.5-8.34-2.82-13.64-.85a58.92,58.92,0,0,0-6.72,3.18,60.19,60.19,0,0,1-6.68,3.17,25.85,25.85,0,0,1-15.73,1A19.68,19.68,0,0,1-2.34,21.8,16,16,0,0,1-1.89,6.28l.93.59a14.85,14.85,0,0,0-.4,14.43,18.58,18.58,0,0,0,11.63,9.12,24.57,24.57,0,0,0,15.05-1,59.63,59.63,0,0,0,6.56-3.11,59.68,59.68,0,0,1,6.85-3.24c5.66-2.1,11.15-1.72,14.7,1C56.24,26.27,58,30,58.24,34.38c.21,3.77-.63,7.5-1.45,11.11l0,.16c-.76,3.37-1.62,7.19-1.32,11,.33,4,2.06,7.42,4.73,9.28s7.16,2,9.51-.69l.83.72A7.61,7.61,0,0,1,64.7,68.38Z"/><path class="cls-6" d="M19.57,19.73a2.55,2.55,0,0,0-1.24,1.67,1.91,1.91,0,0,0,1.11,1.79,4.52,4.52,0,0,0,2.19.35,5.53,5.53,0,0,0,4.2-1.63,3.37,3.37,0,0,0,.68-2.77c-.32-1.54-1.12-2.05-2.49-1.54A19,19,0,0,0,19.57,19.73Z"/><path class="cls-6" d="M24.59,13.57c1.1-.21,2.69-2.08,1.31-2.91a1.67,1.67,0,0,0-2.56,1.14C23.12,12.71,23.44,13.79,24.59,13.57Z"/><path class="cls-6" d="M12.43,19.13a1.46,1.46,0,0,0,.12,1.42,1.36,1.36,0,0,0,.68.41,2.11,2.11,0,0,0,1.94-.4,1.76,1.76,0,0,0,.5-1.88A1.94,1.94,0,0,0,14,17.58C13.21,17.63,12.65,18.51,12.43,19.13Z"/><path class="cls-6" d="M29.72,20.84c-.16.37-.25.86.05,1.12a1,1,0,0,0,1,.07,6.55,6.55,0,0,0,1.64-.74,2.36,2.36,0,0,0,.76-.68,1,1,0,0,0-.5-1.59C31.31,18.49,30.22,19.7,29.72,20.84Z"/><path class="cls-6" d="M29.24,16.15a.68.68,0,0,0,.12.56.74.74,0,0,0,.75,0,4.5,4.5,0,0,0,1.37-.68,1.92,1.92,0,0,0,.77-1.28c.12-1.13-.75-1.48-1.58-.92A3.29,3.29,0,0,0,29.24,16.15Z"/><path class="cls-7" d="M41,35.35a4.81,4.81,0,0,0,.76,3.34,5.16,5.16,0,0,0,2.41,1.68,7.91,7.91,0,0,0,4,.6,6,6,0,0,0,3.91-9.62A5.91,5.91,0,0,0,43,30.93,7.85,7.85,0,0,0,41,35.35Z"/></g></g></svg>