<svg id="Слой_1" data-name="Слой 1" xmlns="http://www.w3.org/2000/svg" viewBox="0 0 412.6 163.4"><defs><style>.cls-1{fill:#00669a;}.cls-2{fill:#4d4d4d;}</style></defs><path class="cls-1" d="M220.75,109.75c-12.64,24.8-45.83,46.09-85.76,42.59-35.53-3.11-62.14-26.75-69.27-50,2.72,3.16,4.69,5.62,6.84,7.94,17.49,18.83,39.44,29.45,66.64,29.23,25.81-.2,47-9.8,63.18-28.44,1.62-1.86,2.92-2.55,5.71-2.06C212.17,109.77,216.45,109.56,220.75,109.75Z"/><path class="cls-1" d="M93.25,65.89c12.8-25.13,46.44-46.71,86.91-43.16,36,3.15,63,27.11,70.2,50.63-2.75-3.2-4.75-5.69-6.93-8-17.72-19.08-40-29.85-67.54-29.63-26.15.21-47.66,9.93-64,28.82-1.64,1.89-3,2.59-5.79,2.09C101.94,65.87,97.6,66.09,93.25,65.89Z"/><path class="cls-2" d="M207.17,51h8a108.13,108.13,0,0,1,13-40.36C219.6,16.08,206.91,41.21,207.17,51Z"/><path class="cls-2" d="M29.89,55.25a22,22,0,0,0-4-6.69,7.57,7.57,0,0,0-4.48-2.26V44.59c.23,0,.78,0,1.66-.08s1.52-.09,1.92-.09a32.69,32.69,0,0,1,4.56.34,14.64,14.64,0,0,1,8.78,4.69,19.44,19.44,0,0,1,3.54,5.8l13.5,31.87s4.24-20.28,6.13-26.92c1.73-6.08,8.23-23.92,8.23-23.92L93.25,46.4S77.7,51.53,73.32,54.8c-11.06,8.27-15,34.41-16.54,44.73A23.74,23.74,0,0,0,61,117.32s-4-4.16-5.71-6.2c-1-1.22-5.13-6.82-5.13-6.82Z"/><path class="cls-2" d="M74.52,83.16a10.84,10.84,0,0,0-.76-4.44C73.25,77.59,72.08,77,70.24,77h-.61V75.2H77a7.92,7.92,0,0,1,2.67.39,3.62,3.62,0,0,1,1.71,1.32,5.79,5.79,0,0,1,.89,2.45,25,25,0,0,1,.25,3.8V104h-8Zm7.35-14.7a3.25,3.25,0,0,1-1,2.51,3.37,3.37,0,0,1-2.39.92,4.15,4.15,0,0,1-3.45-1.41,5,5,0,0,1-1.14-3.25,3.3,3.3,0,0,1,1-2.51,3.37,3.37,0,0,1,2.39-.92,4.18,4.18,0,0,1,3.46,1.41A5,5,0,0,1,81.87,68.46Z"/><path class="cls-2" d="M102.08,77.34a6.17,6.17,0,0,0-5.29,3q-2.06,3-2.06,9.25,0,12.24,7.66,12.24a8.47,8.47,0,0,0,5.17-1.47,17.07,17.07,0,0,0,3.59-3.61L113,98.16a21,21,0,0,1-1.62,2.17,11.26,11.26,0,0,1-2.36,2.09,13.16,13.16,0,0,1-3.33,1.56,15.14,15.14,0,0,1-4.57.61,16.18,16.18,0,0,1-6.43-1.19,13.13,13.13,0,0,1-4.59-3.25,13.6,13.6,0,0,1-2.75-4.78,18.65,18.65,0,0,1,0-11.57A13.6,13.6,0,0,1,90.14,79a13.11,13.11,0,0,1,4.59-3.24,16,16,0,0,1,6.43-1.2,30.82,30.82,0,0,1,5.91.49,6.92,6.92,0,0,1,3.59,1.66A4.88,4.88,0,0,1,112,79.85c.13,1.31.19,3.12.19,5.45h-1.84a8.48,8.48,0,0,0-2.42-5.94A8.24,8.24,0,0,0,102.08,77.34Z"/><path class="cls-2" d="M125.78,75.2h6.74V78h-6.74V96c0,2.28.28,3.82.83,4.62a2.68,2.68,0,0,0,2.36,1.19,7.08,7.08,0,0,0,1.86-.24,11,11,0,0,0,1.57-.55,10.74,10.74,0,0,0,1.4-.86l.86,1.72a9.28,9.28,0,0,1-1.9,1.34,13.76,13.76,0,0,1-2.48.92,13,13,0,0,1-3.58.43,9,9,0,0,1-6.52-2.27c-1.58-1.51-2.36-3.73-2.36-6.67V78h-3.67V75.2h3.67V69.68L120.88,66h4.9Z"/><path class="cls-2" d="M135,89.59a16.78,16.78,0,0,1,1-5.88,13.75,13.75,0,0,1,2.91-4.78,13.33,13.33,0,0,1,4.62-3.18,16.77,16.77,0,0,1,12.31,0,13.33,13.33,0,0,1,4.62,3.18,13.75,13.75,0,0,1,2.91,4.78,17.62,17.62,0,0,1,0,11.76,13.7,13.7,0,0,1-2.91,4.77,13.49,13.49,0,0,1-4.62,3.19,16.91,16.91,0,0,1-12.31,0,13.49,13.49,0,0,1-4.62-3.19A13.7,13.7,0,0,1,136,95.47,16.82,16.82,0,0,1,135,89.59Zm21.13,0a28.31,28.31,0,0,0-.4-4.87,15.22,15.22,0,0,0-1.2-3.89,6.8,6.8,0,0,0-2-2.57,4.77,4.77,0,0,0-5.63,0,6.8,6.8,0,0,0-2,2.57,15.22,15.22,0,0,0-1.2,3.89,29.85,29.85,0,0,0,0,9.74,15.14,15.14,0,0,0,1.2,3.88,6.83,6.83,0,0,0,2,2.58,4.81,4.81,0,0,0,5.63,0,6.83,6.83,0,0,0,2-2.58,15.14,15.14,0,0,0,1.2-3.88A28.4,28.4,0,0,0,156.1,89.59Z"/><path class="cls-2" d="M183.78,74.58a7.09,7.09,0,0,1,4.34,1.23,3.45,3.45,0,0,1,.92.86c.25.32.46.63.64.91a8.13,8.13,0,0,1,.53,1L187.08,81a5.66,5.66,0,0,0-1.1-1.16,5.79,5.79,0,0,0-1.32-.86,4.19,4.19,0,0,0-1.8-.37,8.91,8.91,0,0,0-3.31.55,6.45,6.45,0,0,0-2.14,1.35c0,.29.08.59.12.92s.07.6.09,1,0,.7,0,1.07V104h-8V83.16a18.88,18.88,0,0,0-.15-2.48,6.28,6.28,0,0,0-.58-2,2.91,2.91,0,0,0-1.29-1.26,5,5,0,0,0-2.21-.43h-.61V75.2h6.07a8.3,8.3,0,0,1,3.27.52,3.84,3.84,0,0,1,1.87,1.74,13.84,13.84,0,0,1,3-1.93A10.6,10.6,0,0,1,183.78,74.58Z"/><path class="cls-2" d="M206.28,56.49h8.92V92.83a12.14,12.14,0,0,0,.85,5c.57,1.26,1.89,1.89,3.94,1.89h.69v2.06h-8.23a9.1,9.1,0,0,1-3-.42,3.74,3.74,0,0,1-1.92-1.44,6.63,6.63,0,0,1-1-2.74,28.51,28.51,0,0,1-.27-4.32Z"/><path class="cls-2" d="M223.57,79.26a25.44,25.44,0,0,0-2.85-4.94,4,4,0,0,0-2.79-1.58V71.47l1.08-.06c.55,0,1-.06,1.27-.06a20,20,0,0,1,3.61.31,10.44,10.44,0,0,1,3.23,1.17A10.89,10.89,0,0,1,230,75.24a17.81,17.81,0,0,1,2.47,4L238,91.42,246.62,72H250l-13.49,30.4h-2.28Z"/><path class="cls-2" d="M263.66,71.35q6.21,0,9.59,3.29t3.39,10v17.1h-5.38L269,98.9h-.31a7.3,7.3,0,0,1-1.78,1.77,8.23,8.23,0,0,1-2.34,1.2,10.58,10.58,0,0,1-3.49.51q-5.25,0-8-2.38a7.77,7.77,0,0,1-2.75-6.17,9.91,9.91,0,0,1,.76-4,6.79,6.79,0,0,1,2.69-3A15,15,0,0,1,259,85a46.12,46.12,0,0,1,8.42-.63h1q0-5.7-1.58-7.92a5.14,5.14,0,0,0-4.44-2.21,9.23,9.23,0,0,0-2.06.22,4.66,4.66,0,0,0-1.8.85A5.8,5.8,0,0,0,257.07,77a10.09,10.09,0,0,0-1,2.89h-3.48a25.72,25.72,0,0,1,.22-3.36,5.35,5.35,0,0,1,1.36-3,6.52,6.52,0,0,1,3.77-1.74A32,32,0,0,1,263.66,71.35Zm4.75,15.83h-1q-4.56,0-6.56,1.66a6.22,6.22,0,0,0-2,5.06A6.34,6.34,0,0,0,260,98a3.65,3.65,0,0,0,3,1.38,4.31,4.31,0,0,0,2.43-.64,8.47,8.47,0,0,0,1.68-1.41,8,8,0,0,0,1.27-2.11Z"/><path class="cls-2" d="M296.78,74.39a9.78,9.78,0,0,0-3.51.57,6.5,6.5,0,0,0-2.32,1.4c.05.25.11.55.19.89a5.7,5.7,0,0,1,.19,1.08,12,12,0,0,1,.07,1.4v22h-8.24V80.21a20.17,20.17,0,0,0-.15-2.56,6.21,6.21,0,0,0-.61-2,2.89,2.89,0,0,0-1.33-1.3,5.17,5.17,0,0,0-2.28-.44h-.63V72h6.27a8.63,8.63,0,0,1,3.39.54,4,4,0,0,1,1.93,1.8,13,13,0,0,1,1.36-1,8.63,8.63,0,0,1,1.9-1,16,16,0,0,1,2.57-.7,18,18,0,0,1,3.42-.28c4,0,7,.91,9,2.75s3,4.8,3,8.9v18.75H302.8V82.85c0-3.1-.57-5.28-1.71-6.56A5.54,5.54,0,0,0,296.78,74.39Z"/><path class="cls-2" d="M330.54,99.53A8.81,8.81,0,0,0,335.89,98a17.75,17.75,0,0,0,3.7-3.74l2,1.46A24.24,24.24,0,0,1,339.88,98a12,12,0,0,1-2.41,2.15,13.21,13.21,0,0,1-3.35,1.62,14.66,14.66,0,0,1-4.53.63,15,15,0,0,1-6-1.17A13.19,13.19,0,0,1,319,98,14.6,14.6,0,0,1,316,93a18.29,18.29,0,0,1-1-6.18,19.24,19.24,0,0,1,1.08-6.71A13.7,13.7,0,0,1,319,75.3a12.56,12.56,0,0,1,4.4-2.94,14.63,14.63,0,0,1,5.51-1,16.09,16.09,0,0,1,5.51.91,13.61,13.61,0,0,1,4.4,2.57,11.86,11.86,0,0,1,2.95,4A12.24,12.24,0,0,1,342.89,84c0,.47,0,.94,0,1.43s-.05.92-.09,1.3-.09.88-.13,1.26H323.57q0,6.27,1.93,8.9A6,6,0,0,0,330.54,99.53Zm3.8-14.38a27.27,27.27,0,0,0-.42-5.25,11.69,11.69,0,0,0-1.1-3.36,4.43,4.43,0,0,0-1.68-1.81A4.6,4.6,0,0,0,329,74.2a4.33,4.33,0,0,0-2.06.53,4.54,4.54,0,0,0-1.7,1.81A11.55,11.55,0,0,0,324,79.9a26.31,26.31,0,0,0-.44,5.25Z"/><path class="cls-2" d="M356.44,72h7v2.85h-7V93.51c0,2.37.28,4,.85,4.78a2.79,2.79,0,0,0,2.44,1.24,7.56,7.56,0,0,0,1.93-.25,11.21,11.21,0,0,0,1.62-.57,11.63,11.63,0,0,0,1.46-.89l.88,1.77a10.35,10.35,0,0,1-2,1.4,16.26,16.26,0,0,1-2.57,1,13.8,13.8,0,0,1-3.7.44,9.36,9.36,0,0,1-6.75-2.34q-2.43-2.36-2.43-6.91V74.83h-3.8V72h3.8v-5.7l3.16-3.8h5.07Z"/><path class="cls-2" d="M376.9,99.53q3.54,0,4.94-1.24a4,4,0,0,0,1.39-3.07,3.39,3.39,0,0,0-1.65-2.94,27.58,27.58,0,0,0-4.05-2.19l-3.29-1.39a19.7,19.7,0,0,1-6-3.74,7,7,0,0,1-2.15-5.19,7.12,7.12,0,0,1,.89-3.64,7.73,7.73,0,0,1,2.5-2.63,11.8,11.8,0,0,1,3.83-1.62,20.85,20.85,0,0,1,4.81-.53,24.79,24.79,0,0,1,6.43.69,9,9,0,0,1,3.77,1.9,4.72,4.72,0,0,1,1.33,3.11c.12,1.35.19,2.82.19,4.43h-2.22a9.76,9.76,0,0,0-2.47-5.16,7.45,7.45,0,0,0-5.76-2.12,5.78,5.78,0,0,0-4.12,1.23,4.13,4.13,0,0,0-1.26,3.07,3.49,3.49,0,0,0,1.2,2.76,12.57,12.57,0,0,0,3.29,1.93l3.8,1.58a23.73,23.73,0,0,1,6.59,3.83A6.85,6.85,0,0,1,391.15,94a6.64,6.64,0,0,1-1,3.64,8.46,8.46,0,0,1-2.69,2.63,13.23,13.23,0,0,1-4.08,1.61,23.67,23.67,0,0,1-5.23.54,24.31,24.31,0,0,1-6.43-.7,8.82,8.82,0,0,1-3.76-1.9,4.67,4.67,0,0,1-1.33-3.1c-.13-1.35-.19-2.83-.19-4.43h2.21a9.83,9.83,0,0,0,2.47,5.16A7.49,7.49,0,0,0,376.9,99.53Z"/><path d="M298.81,120.86a2.42,2.42,0,0,0,1.57-.39,1.27,1.27,0,0,0,.44-1,1.08,1.08,0,0,0-.52-.93,8.41,8.41,0,0,0-1.29-.7l-1.05-.44a6.21,6.21,0,0,1-1.89-1.19,2.19,2.19,0,0,1-.69-1.65,2.4,2.4,0,0,1,.28-1.16,2.44,2.44,0,0,1,.8-.83,3.87,3.87,0,0,1,1.22-.52,6.7,6.7,0,0,1,1.53-.17,7.69,7.69,0,0,1,2,.22,2.81,2.81,0,0,1,1.2.61,1.46,1.46,0,0,1,.42,1q.06.65.06,1.41h-.7a3.12,3.12,0,0,0-.79-1.64,2.35,2.35,0,0,0-1.83-.67,1.85,1.85,0,0,0-1.31.39,1.3,1.3,0,0,0-.4,1,1.11,1.11,0,0,0,.38.87,4.21,4.21,0,0,0,1.05.62l1.21.5a7.67,7.67,0,0,1,2.09,1.22,2.17,2.17,0,0,1,.71,1.7,2.21,2.21,0,0,1-.31,1.16,2.63,2.63,0,0,1-.86.83,4.26,4.26,0,0,1-1.3.52,7.77,7.77,0,0,1-1.66.17,8.22,8.22,0,0,1-2-.22,2.71,2.71,0,0,1-1.19-.61,1.45,1.45,0,0,1-.43-1q-.06-.64-.06-1.41h.71a3.18,3.18,0,0,0,.78,1.64A2.39,2.39,0,0,0,298.81,120.86Z"/><path d="M305,114.72a3.72,3.72,0,0,0-.25-1.46c-.17-.37-.56-.55-1.16-.55h-.2v-.61h2.41a2.72,2.72,0,0,1,.88.13,1.11,1.11,0,0,1,.56.44,1.89,1.89,0,0,1,.3.8,8.63,8.63,0,0,1,.08,1.25v6.85H305Zm2.42-4.83a1,1,0,0,1-.33.82,1.09,1.09,0,0,1-.78.3,1.37,1.37,0,0,1-1.14-.46,1.64,1.64,0,0,1-.37-1.07,1.08,1.08,0,0,1,.32-.82,1.11,1.11,0,0,1,.79-.3,1.37,1.37,0,0,1,1.13.46A1.65,1.65,0,0,1,307.45,109.89Z"/><path d="M312,112.87a4.71,4.71,0,0,1,1-.65,3.48,3.48,0,0,1,1.55-.32,3.65,3.65,0,0,1,1,.13,4.85,4.85,0,0,1,.82.31,3.07,3.07,0,0,1,.58.38,1.9,1.9,0,0,1,.35.33,4,4,0,0,1,1-.8,3.87,3.87,0,0,1,1.81-.35,3.61,3.61,0,0,1,2.6.88,3.72,3.72,0,0,1,.93,2.83v6h-2.62v-6a3.55,3.55,0,0,0-.46-2.09,1.41,1.41,0,0,0-1.15-.6,2.25,2.25,0,0,0-1,.22,2,2,0,0,0-.71.55c.05.12.1.27.16.44s.07.35.11.6a7.58,7.58,0,0,1,.05.9v6h-2.62v-6a3.55,3.55,0,0,0-.46-2.09,1.4,1.4,0,0,0-1.15-.6,1.74,1.74,0,0,0-.91.27,2.26,2.26,0,0,0-.64.54,2,2,0,0,0,.06.28,1.49,1.49,0,0,1,.06.34c0,.14,0,.29,0,.45v6.82h-2.62v-6.85a6.81,6.81,0,0,0,0-.82,2,2,0,0,0-.19-.64.88.88,0,0,0-.42-.41,1.56,1.56,0,0,0-.73-.14h-.2v-.61h2a3,3,0,0,1,1.05.17,1.27,1.27,0,0,1,.67.6Z"/><path d="M330.73,111.9a4.29,4.29,0,0,1,1.84.38,3.93,3.93,0,0,1,1.33,1,4.47,4.47,0,0,1,.79,1.57,7.33,7.33,0,0,1,0,3.87,4.32,4.32,0,0,1-.8,1.57,4,4,0,0,1-1.36,1,4.54,4.54,0,0,1-1.9.38,3.87,3.87,0,0,1-.89-.09,4.1,4.1,0,0,1-.67-.21,2,2,0,0,1-.56-.31v4.23h-2.62V114.72a6.81,6.81,0,0,0-.05-.82,2,2,0,0,0-.19-.64.88.88,0,0,0-.42-.41,1.56,1.56,0,0,0-.73-.14h-.2v-.61h2a2.63,2.63,0,0,1,1.08.18,1.32,1.32,0,0,1,.62.67,4.31,4.31,0,0,1,.43-.34,3.56,3.56,0,0,1,.58-.35,4.33,4.33,0,0,1,.77-.26A4.1,4.1,0,0,1,330.73,111.9Zm-.41.91a2.33,2.33,0,0,0-1.23.28,4.33,4.33,0,0,0-.72.54,1.27,1.27,0,0,0,.06.28,1.55,1.55,0,0,1,.06.31,3.79,3.79,0,0,1,0,.38v5.66a2.41,2.41,0,0,0,.48.3,2.77,2.77,0,0,0,.54.21,2.5,2.5,0,0,0,.69.09,1.5,1.5,0,0,0,.95-.3,2.16,2.16,0,0,0,.62-.85,4.43,4.43,0,0,0,.34-1.27,11.76,11.76,0,0,0,0-3.21,4.61,4.61,0,0,0-.33-1.28,2.14,2.14,0,0,0-.59-.84A1.35,1.35,0,0,0,330.32,112.81Z"/><path d="M336.4,110.89a3.55,3.55,0,0,0-.25-1.46c-.17-.37-.55-.55-1.16-.55h-.2v-.6h2.42a2.51,2.51,0,0,1,.88.13,1.14,1.14,0,0,1,.56.43,1.88,1.88,0,0,1,.29.81,7.28,7.28,0,0,1,.08,1.24v10.68H336.4Z"/><path d="M345.41,120.86a2.83,2.83,0,0,0,1.7-.48,5.79,5.79,0,0,0,1.18-1.19l.62.46c-.15.23-.33.47-.53.72a3.64,3.64,0,0,1-.77.68,4.26,4.26,0,0,1-1.07.52,4.72,4.72,0,0,1-1.44.2,4.9,4.9,0,0,1-1.92-.37,4.27,4.27,0,0,1-1.46-1,4.69,4.69,0,0,1-.93-1.56,5.9,5.9,0,0,1-.32-2,6.34,6.34,0,0,1,.34-2.13,4.31,4.31,0,0,1,.94-1.54,4.06,4.06,0,0,1,1.4-.94,4.78,4.78,0,0,1,1.75-.32,5.28,5.28,0,0,1,1.76.29,4.37,4.37,0,0,1,1.39.82,3.73,3.73,0,0,1,.94,1.27,3.84,3.84,0,0,1,.34,1.65c0,.15,0,.3,0,.45a2.46,2.46,0,0,1,0,.41c0,.15,0,.29,0,.41h-6.06a4.92,4.92,0,0,0,.62,2.83A1.9,1.9,0,0,0,345.41,120.86Zm1.2-4.57a8.63,8.63,0,0,0-.13-1.67,3.53,3.53,0,0,0-.35-1.07,1.34,1.34,0,0,0-.53-.57,1.37,1.37,0,0,0-.7-.17,1.26,1.26,0,0,0-.65.17,1.44,1.44,0,0,0-.55.57,4.14,4.14,0,0,0-.37,1.07,8.53,8.53,0,0,0-.14,1.67Z"/><path d="M355.13,110.89a3.55,3.55,0,0,0-.25-1.46c-.17-.37-.55-.55-1.16-.55h-.2v-.6h2.42a2.51,2.51,0,0,1,.88.13,1.14,1.14,0,0,1,.56.43,1.88,1.88,0,0,1,.29.81,7.28,7.28,0,0,1,.08,1.24v10.68h-2.62Z"/><path d="M359.18,116.83a5.63,5.63,0,0,1,.33-1.93,4.49,4.49,0,0,1,1-1.57,4.59,4.59,0,0,1,1.52-1,5.59,5.59,0,0,1,4.05,0,4.59,4.59,0,0,1,1.52,1,4.64,4.64,0,0,1,1,1.57,5.84,5.84,0,0,1,0,3.87,4.64,4.64,0,0,1-1,1.57,4.59,4.59,0,0,1-1.52,1,5.59,5.59,0,0,1-4.05,0,4.59,4.59,0,0,1-1.52-1,4.49,4.49,0,0,1-1-1.57A5.65,5.65,0,0,1,359.18,116.83Zm6.95,0a10,10,0,0,0-.13-1.6,5.36,5.36,0,0,0-.39-1.28,2.29,2.29,0,0,0-.67-.84,1.52,1.52,0,0,0-.93-.3,1.49,1.49,0,0,0-.92.3,2.29,2.29,0,0,0-.67.84,5.36,5.36,0,0,0-.39,1.28,10,10,0,0,0,0,3.21,5.14,5.14,0,0,0,.39,1.27,2.25,2.25,0,0,0,.67.85,1.49,1.49,0,0,0,.92.3,1.52,1.52,0,0,0,.93-.3,2.25,2.25,0,0,0,.67-.85,5.14,5.14,0,0,0,.39-1.27A10,10,0,0,0,366.13,116.83Z"/><path d="M369.87,115a2.93,2.93,0,0,1,.34-1.47,2.6,2.6,0,0,1,.92-1,4.23,4.23,0,0,1,1.38-.54,8.29,8.29,0,0,1,1.69-.16h4.23v.54l-1.81.25a3.2,3.2,0,0,1,1.38,1,2.16,2.16,0,0,1,.53,1.37,3.06,3.06,0,0,1-.31,1.46,2.52,2.52,0,0,1-.87,1A3.86,3.86,0,0,1,376,118a8.89,8.89,0,0,1-1.79.16,9.33,9.33,0,0,0-1.46.1c-.37.07-.55.24-.55.51s.18.37.55.43a10.51,10.51,0,0,0,1.46.11,10.54,10.54,0,0,1,1.93.22,5.64,5.64,0,0,1,1.56.6,3.33,3.33,0,0,1,1.06,1,2.48,2.48,0,0,1,.39,1.38,2.8,2.8,0,0,1-.37,1.48,2.75,2.75,0,0,1-1,1,5.09,5.09,0,0,1-1.57.52,11,11,0,0,1-2,.17,10.84,10.84,0,0,1-2-.17,4.94,4.94,0,0,1-1.56-.52,2.75,2.75,0,0,1-1-1,2.71,2.71,0,0,1-.37-1.48,1.94,1.94,0,0,1,.24-1,2.57,2.57,0,0,1,.64-.76,4.24,4.24,0,0,1,.87-.54,5.34,5.34,0,0,1,1-.34,1.64,1.64,0,0,1-.65-.39,1,1,0,0,1-.26-.72,1.08,1.08,0,0,1,.81-1,3.13,3.13,0,0,1-1.43-1A2.59,2.59,0,0,1,369.87,115Zm3.55,5.08a2.41,2.41,0,0,0-1.05.83,2.69,2.69,0,0,0-.38,1.52,2.12,2.12,0,0,0,.6,1.68,2.69,2.69,0,0,0,3.23,0,2.12,2.12,0,0,0,.6-1.68,2.09,2.09,0,0,0-.56-1.49,2.76,2.76,0,0,0-1.5-.76Zm2.4-5.08a2.86,2.86,0,0,0-.46-1.74,1.38,1.38,0,0,0-1.16-.59,1.41,1.41,0,0,0-1.15.55,2.75,2.75,0,0,0-.46,1.78,2.65,2.65,0,0,0,.46,1.77,1.45,1.45,0,0,0,1.15.53,1.47,1.47,0,0,0,1.16-.53A2.7,2.7,0,0,0,375.82,115Z"/><path d="M379.66,116.83a5.63,5.63,0,0,1,.33-1.93,4.49,4.49,0,0,1,1-1.57,4.59,4.59,0,0,1,1.52-1,5.59,5.59,0,0,1,4,0,4.59,4.59,0,0,1,1.52,1,4.64,4.64,0,0,1,1,1.57,5.84,5.84,0,0,1,0,3.87,4.64,4.64,0,0,1-1,1.57,4.59,4.59,0,0,1-1.52,1,5.59,5.59,0,0,1-4,0,4.59,4.59,0,0,1-1.52-1,4.49,4.49,0,0,1-1-1.57A5.65,5.65,0,0,1,379.66,116.83Zm6.95,0a10,10,0,0,0-.13-1.6,5.36,5.36,0,0,0-.39-1.28,2.29,2.29,0,0,0-.67-.84,1.52,1.52,0,0,0-.93-.3,1.49,1.49,0,0,0-.92.3,2.29,2.29,0,0,0-.67.84,5.36,5.36,0,0,0-.39,1.28,10,10,0,0,0,0,3.21,5.14,5.14,0,0,0,.39,1.27,2.25,2.25,0,0,0,.67.85,1.49,1.49,0,0,0,.92.3,1.52,1.52,0,0,0,.93-.3,2.25,2.25,0,0,0,.67-.85,5.14,5.14,0,0,0,.39-1.27A10,10,0,0,0,386.61,116.83Z"/></svg>